<svg width="1302" height="554" viewBox="0 0 1302 554" fill="none" xmlns="http://www.w3.org/2000/svg">
<rect width="1302" height="554" fill="white"/>
<line y1="-1.5" x2="1045" y2="-1.5" transform="translate(140 396)" stroke="#E0E0E0" stroke-width="3"/>
<line y1="-1.5" x2="1045" y2="-1.5" transform="translate(140 88)" stroke="#E0E0E0" stroke-width="3"/>
<line y1="-1.5" x2="1045" y2="-1.5" transform="translate(140 287)" stroke="#E0E0E0" stroke-width="3"/>
<line y1="-3" x2="92" y2="-3" transform="translate(597 177) rotate(-90)" stroke="#EB5757" stroke-width="6"/>
<line y1="-3" x2="100" y2="-3" transform="translate(780 185) rotate(-90)" stroke="#EB5757" stroke-width="6"/>
<line y1="-1.5" x2="1045" y2="-1.5" transform="translate(140 243)" stroke="#E0E0E0" stroke-width="3"/>
<line y1="-1.5" x2="1045" y2="-1.5" transform="translate(140 194)" stroke="#E0E0E0" stroke-width="3"/>
<line y1="-1.5" x2="1045" y2="-1.5" transform="translate(140 481)" stroke="#E0E0E0" stroke-width="3"/>
<line y1="-3" x2="205" y2="-3" transform="translate(199 191) rotate(90)" stroke="#EB5757" stroke-width="6"/>
<path d="M145.688 252.172C145.688 270.453 139.078 284.797 125.859 295.203C112.641 305.609 94.4062 310.812 71.1562 310.812C47.9062 310.812 28.875 307.203 14.0625 299.984V268.203C23.4375 272.609 33.375 276.078 43.875 278.609C54.4688 281.141 64.3125 282.406 73.4062 282.406C86.7188 282.406 96.5156 279.875 102.797 274.812C109.172 269.75 112.359 262.953 112.359 254.422C112.359 246.734 109.453 240.219 103.641 234.875C97.8281 229.531 85.8281 223.203 67.6406 215.891C48.8906 208.297 35.6719 199.625 27.9844 189.875C20.2969 180.125 16.4531 168.406 16.4531 154.719C16.4531 137.562 22.5469 124.062 34.7344 114.219C46.9219 104.375 63.2812 99.4531 83.8125 99.4531C103.5 99.4531 123.094 103.766 142.594 112.391L131.906 139.812C113.625 132.125 97.3125 128.281 82.9688 128.281C72.0938 128.281 63.8438 130.672 58.2188 135.453C52.5938 140.141 49.7812 146.375 49.7812 154.156C49.7812 159.5 50.9062 164.094 53.1562 167.938C55.4062 171.688 59.1094 175.25 64.2656 178.625C69.4219 182 78.7031 186.453 92.1094 191.984C107.203 198.266 118.266 204.125 125.297 209.562C132.328 215 137.484 221.141 140.766 227.984C144.047 234.828 145.688 242.891 145.688 252.172ZM260.859 310.812C241.172 310.812 225.891 303.734 215.016 289.578H213.047C214.359 302.703 215.016 310.672 215.016 313.484V377.188H181.969V152.469H208.688C209.438 155.375 210.984 162.312 213.328 173.281H215.016C225.328 157.531 240.797 149.656 261.422 149.656C280.828 149.656 295.922 156.688 306.703 170.75C317.578 184.812 323.016 204.547 323.016 229.953C323.016 255.359 317.484 275.188 306.422 289.438C295.453 303.688 280.266 310.812 260.859 310.812ZM252.844 176.656C239.719 176.656 230.109 180.5 224.016 188.188C218.016 195.875 215.016 208.156 215.016 225.031V229.953C215.016 248.891 218.016 262.625 224.016 271.156C230.016 279.594 239.812 283.812 253.406 283.812C264.844 283.812 273.656 279.125 279.844 269.75C286.031 260.375 289.125 247.016 289.125 229.672C289.125 212.234 286.031 199.062 279.844 190.156C273.75 181.156 264.75 176.656 252.844 176.656ZM498.234 308H465.047V212.375C465.047 200.375 462.609 191.422 457.734 185.516C452.953 179.609 445.312 176.656 434.812 176.656C420.938 176.656 410.719 180.828 404.156 189.172C397.688 197.422 394.453 211.297 394.453 230.797V308H361.406V89.1875H394.453V144.734C394.453 153.641 393.891 163.156 392.766 173.281H394.875C399.375 165.781 405.609 159.969 413.578 155.844C421.641 151.719 431.016 149.656 441.703 149.656C479.391 149.656 498.234 168.641 498.234 206.609V308ZM577.266 308H544.219V152.469H577.266V308ZM542.25 111.266C542.25 105.359 543.844 100.813 547.031 97.625C550.312 94.4375 554.953 92.8438 560.953 92.8438C566.766 92.8438 571.266 94.4375 574.453 97.625C577.734 100.813 579.375 105.359 579.375 111.266C579.375 116.891 577.734 121.344 574.453 124.625C571.266 127.813 566.766 129.406 560.953 129.406C554.953 129.406 550.312 127.813 547.031 124.625C543.844 121.344 542.25 116.891 542.25 111.266ZM761.484 308H728.297V212.375C728.297 200.375 725.859 191.422 720.984 185.516C716.203 179.609 708.562 176.656 698.062 176.656C684.094 176.656 673.875 180.781 667.406 189.031C660.938 197.281 657.703 211.109 657.703 230.516V308H624.656V152.469H650.531L655.172 172.859H656.859C661.547 165.453 668.203 159.734 676.828 155.703C685.453 151.672 695.016 149.656 705.516 149.656C742.828 149.656 761.484 168.641 761.484 206.609V308ZM842.062 228.547L789.891 152.469H827.578L863.016 206.891L898.734 152.469H936.141L883.828 228.547L938.812 308H901.406L863.016 249.781L824.766 308H787.359L842.062 228.547Z" transform="translate(216 88)" fill="#DAE4E9"/>
<line y1="-3" x2="380" y2="-3" transform="translate(398 465) rotate(-90)" stroke="#EB5757" stroke-width="6"/>
<line y1="-3" x2="396" y2="-3" transform="translate(1185 481) rotate(-90)" stroke="#EB5757" stroke-width="6"/>
<line y1="-3" x2="156" y2="-3" transform="translate(1003 240) rotate(90)" stroke="#EB5757" stroke-width="6"/>
<path d="M10.375 22C10.25 21.75 10.1484 21.3047 10.0703 20.6641C9.0625 21.7109 7.85938 22.2344 6.46094 22.2344C5.21094 22.2344 4.18359 21.8828 3.37891 21.1797C2.58203 20.4688 2.18359 19.5703 2.18359 18.4844C2.18359 17.1641 2.68359 16.1406 3.68359 15.4141C4.69141 14.6797 6.10547 14.3125 7.92578 14.3125H10.0352V13.3164C10.0352 12.5586 9.80859 11.957 9.35547 11.5117C8.90234 11.0586 8.23438 10.832 7.35156 10.832C6.57812 10.832 5.92969 11.0273 5.40625 11.418C4.88281 11.8086 4.62109 12.2812 4.62109 12.8359H2.44141C2.44141 12.2031 2.66406 11.5938 3.10938 11.0078C3.5625 10.4141 4.17188 9.94531 4.9375 9.60156C5.71094 9.25781 6.55859 9.08594 7.48047 9.08594C8.94141 9.08594 10.0859 9.45312 10.9141 10.1875C11.7422 10.9141 12.1719 11.918 12.2031 13.1992V19.0352C12.2031 20.1992 12.3516 21.125 12.6484 21.8125V22H10.375ZM6.77734 20.3477C7.45703 20.3477 8.10156 20.1719 8.71094 19.8203C9.32031 19.4688 9.76172 19.0117 10.0352 18.4492V15.8477H8.33594C5.67969 15.8477 4.35156 16.625 4.35156 18.1797C4.35156 18.8594 4.57812 19.3906 5.03125 19.7734C5.48438 20.1562 6.06641 20.3477 6.77734 20.3477ZM17.957 22H15.7891V4H17.957V22ZM32.1484 15.8008C32.1484 17.7305 31.707 19.2852 30.8242 20.4648C29.9414 21.6445 28.7461 22.2344 27.2383 22.2344C25.6992 22.2344 24.4883 21.7461 23.6055 20.7695V26.875H21.4375V9.32031H23.418L23.5234 10.7266C24.4062 9.63281 25.6328 9.08594 27.2031 9.08594C28.7266 9.08594 29.9297 9.66016 30.8125 10.8086C31.7031 11.957 32.1484 13.5547 32.1484 15.6016V15.8008ZM29.9805 15.5547C29.9805 14.125 29.6758 12.9961 29.0664 12.168C28.457 11.3398 27.6211 10.9258 26.5586 10.9258C25.2461 10.9258 24.2617 11.5078 23.6055 12.6719V18.7305C24.2539 19.8867 25.2461 20.4648 26.582 20.4648C27.6211 20.4648 28.4453 20.0547 29.0547 19.2344C29.6719 18.4062 29.9805 17.1797 29.9805 15.5547ZM37.082 10.8555C38.043 9.67578 39.293 9.08594 40.832 9.08594C43.5117 9.08594 44.8633 10.5977 44.8867 13.6211V22H42.7188V13.6094C42.7109 12.6953 42.5 12.0195 42.0859 11.582C41.6797 11.1445 41.043 10.9258 40.1758 10.9258C39.4727 10.9258 38.8555 11.1133 38.3242 11.4883C37.793 11.8633 37.3789 12.3555 37.082 12.9648V22H34.9141V4H37.082V10.8555ZM55.9609 22C55.8359 21.75 55.7344 21.3047 55.6562 20.6641C54.6484 21.7109 53.4453 22.2344 52.0469 22.2344C50.7969 22.2344 49.7695 21.8828 48.9648 21.1797C48.168 20.4688 47.7695 19.5703 47.7695 18.4844C47.7695 17.1641 48.2695 16.1406 49.2695 15.4141C50.2773 14.6797 51.6914 14.3125 53.5117 14.3125H55.6211V13.3164C55.6211 12.5586 55.3945 11.957 54.9414 11.5117C54.4883 11.0586 53.8203 10.832 52.9375 10.832C52.1641 10.832 51.5156 11.0273 50.9922 11.418C50.4688 11.8086 50.207 12.2812 50.207 12.8359H48.0273C48.0273 12.2031 48.25 11.5938 48.6953 11.0078C49.1484 10.4141 49.7578 9.94531 50.5234 9.60156C51.2969 9.25781 52.1445 9.08594 53.0664 9.08594C54.5273 9.08594 55.6719 9.45312 56.5 10.1875C57.3281 10.9141 57.7578 11.918 57.7891 13.1992V19.0352C57.7891 20.1992 57.9375 21.125 58.2344 21.8125V22H55.9609ZM52.3633 20.3477C53.043 20.3477 53.6875 20.1719 54.2969 19.8203C54.9062 19.4688 55.3477 19.0117 55.6211 18.4492V15.8477H53.9219C51.2656 15.8477 49.9375 16.625 49.9375 18.1797C49.9375 18.8594 50.1641 19.3906 50.6172 19.7734C51.0703 20.1562 51.6523 20.3477 52.3633 20.3477ZM71.9219 15.8008C71.9219 17.7383 71.4766 19.2969 70.5859 20.4766C69.6953 21.6484 68.5 22.2344 67 22.2344C65.3984 22.2344 64.1602 21.668 63.2852 20.5352L63.1797 22H61.1875V4H63.3555V10.7148C64.2305 9.62891 65.4375 9.08594 66.9766 9.08594C68.5156 9.08594 69.7227 9.66797 70.5977 10.832C71.4805 11.9961 71.9219 13.5898 71.9219 15.6133V15.8008ZM69.7539 15.5547C69.7539 14.0781 69.4688 12.9375 68.8984 12.1328C68.3281 11.3281 67.5078 10.9258 66.4375 10.9258C65.0078 10.9258 63.9805 11.5898 63.3555 12.918V18.4023C64.0195 19.7305 65.0547 20.3945 66.4609 20.3945C67.5 20.3945 68.3086 19.9922 68.8867 19.1875C69.4648 18.3828 69.7539 17.1719 69.7539 15.5547ZM79.9258 22.2344C78.207 22.2344 76.8086 21.6719 75.7305 20.5469C74.6523 19.4141 74.1133 17.9023 74.1133 16.0117V15.6133C74.1133 14.3555 74.3516 13.2344 74.8281 12.25C75.3125 11.2578 75.9844 10.4844 76.8438 9.92969C77.7109 9.36719 78.6484 9.08594 79.6562 9.08594C81.3047 9.08594 82.5859 9.62891 83.5 10.7148C84.4141 11.8008 84.8711 13.3555 84.8711 15.3789V16.2812H76.2812C76.3125 17.5312 76.6758 18.543 77.3711 19.3164C78.0742 20.082 78.9648 20.4648 80.043 20.4648C80.8086 20.4648 81.457 20.3086 81.9883 19.9961C82.5195 19.6836 82.9844 19.2695 83.3828 18.7539L84.707 19.7852C83.6445 21.418 82.0508 22.2344 79.9258 22.2344ZM79.6562 10.8672C78.7812 10.8672 78.0469 11.1875 77.4531 11.8281C76.8594 12.4609 76.4922 13.3516 76.3516 14.5H82.7031V14.3359C82.6406 13.2344 82.3438 12.3828 81.8125 11.7812C81.2812 11.1719 80.5625 10.8672 79.6562 10.8672ZM90.332 6.25V9.32031H92.6992V10.9961H90.332V18.8594C90.332 19.3672 90.4375 19.75 90.6484 20.0078C90.8594 20.2578 91.2188 20.3828 91.7266 20.3828C91.9766 20.3828 92.3203 20.3359 92.7578 20.2422V22C92.1875 22.1562 91.6328 22.2344 91.0938 22.2344C90.125 22.2344 89.3945 21.9414 88.9023 21.3555C88.4102 20.7695 88.1641 19.9375 88.1641 18.8594V10.9961H85.8555V9.32031H88.1641V6.25H90.332ZM97.5977 22H95.4297V9.32031H97.5977V22ZM95.2539 5.95703C95.2539 5.60547 95.3594 5.30859 95.5703 5.06641C95.7891 4.82422 96.1094 4.70312 96.5312 4.70312C96.9531 4.70312 97.2734 4.82422 97.4922 5.06641C97.7109 5.30859 97.8203 5.60547 97.8203 5.95703C97.8203 6.30859 97.7109 6.60156 97.4922 6.83594C97.2734 7.07031 96.9531 7.1875 96.5312 7.1875C96.1094 7.1875 95.7891 7.07031 95.5703 6.83594C95.3594 6.60156 95.2539 6.30859 95.2539 5.95703ZM106.164 20.4648C106.938 20.4648 107.613 20.2305 108.191 19.7617C108.77 19.293 109.09 18.707 109.152 18.0039H111.203C111.164 18.7305 110.914 19.4219 110.453 20.0781C109.992 20.7344 109.375 21.2578 108.602 21.6484C107.836 22.0391 107.023 22.2344 106.164 22.2344C104.438 22.2344 103.062 21.6602 102.039 20.5117C101.023 19.3555 100.516 17.7773 100.516 15.7773V15.4141C100.516 14.1797 100.742 13.082 101.195 12.1211C101.648 11.1602 102.297 10.4141 103.141 9.88281C103.992 9.35156 104.996 9.08594 106.152 9.08594C107.574 9.08594 108.754 9.51172 109.691 10.3633C110.637 11.2148 111.141 12.3203 111.203 13.6797H109.152C109.09 12.8594 108.777 12.1875 108.215 11.6641C107.66 11.1328 106.973 10.8672 106.152 10.8672C105.051 10.8672 104.195 11.2656 103.586 12.0625C102.984 12.8516 102.684 13.9961 102.684 15.4961V15.9062C102.684 17.3672 102.984 18.4922 103.586 19.2812C104.188 20.0703 105.047 20.4648 106.164 20.4648Z" transform="translate(7 379)" fill="black"/>
<path d="M60.7344 38.8672C60.7344 40.1589 60.4375 41.1979 59.8438 41.9844C59.25 42.7656 58.4531 43.1562 57.4531 43.1562C56.3854 43.1562 55.5599 42.7786 54.9766 42.0234L54.9062 43H53.5781V31H55.0234V35.4766C55.6068 34.7526 56.4115 34.3906 57.4375 34.3906C58.4635 34.3906 59.2682 34.7786 59.8516 35.5547C60.4401 36.3307 60.7344 37.3932 60.7344 38.7422V38.8672ZM59.2891 38.7031C59.2891 37.7188 59.099 36.9583 58.7188 36.4219C58.3385 35.8854 57.7917 35.6172 57.0781 35.6172C56.125 35.6172 55.4401 36.0599 55.0234 36.9453V40.6016C55.4661 41.487 56.1562 41.9297 57.0938 41.9297C57.7865 41.9297 58.3255 41.6615 58.7109 41.125C59.0964 40.5885 59.2891 39.7812 59.2891 38.7031ZM67.7812 43C67.6979 42.8333 67.6302 42.5365 67.5781 42.1094C66.9062 42.8073 66.1042 43.1562 65.1719 43.1562C64.3385 43.1562 63.6536 42.9219 63.1172 42.4531C62.5859 41.9792 62.3203 41.3802 62.3203 40.6562C62.3203 39.776 62.6536 39.0938 63.3203 38.6094C63.9922 38.1198 64.9349 37.875 66.1484 37.875H67.5547V37.2109C67.5547 36.7057 67.4036 36.3047 67.1016 36.0078C66.7995 35.7057 66.3542 35.5547 65.7656 35.5547C65.25 35.5547 64.8177 35.6849 64.4688 35.9453C64.1198 36.2057 63.9453 36.5208 63.9453 36.8906H62.4922C62.4922 36.4688 62.6406 36.0625 62.9375 35.6719C63.2396 35.276 63.6458 34.9635 64.1562 34.7344C64.6719 34.5052 65.237 34.3906 65.8516 34.3906C66.8255 34.3906 67.5885 34.6354 68.1406 35.125C68.6927 35.6094 68.9792 36.2786 69 37.1328V41.0234C69 41.7995 69.099 42.4167 69.2969 42.875V43H67.7812ZM65.3828 41.8984C65.8359 41.8984 66.2656 41.7812 66.6719 41.5469C67.0781 41.3125 67.3724 41.0078 67.5547 40.6328V38.8984H66.4219C64.651 38.8984 63.7656 39.4167 63.7656 40.4531C63.7656 40.9062 63.9167 41.2604 64.2188 41.5156C64.5208 41.7708 64.9089 41.8984 65.3828 41.8984ZM76.1875 40.7578C76.1875 40.3672 76.0391 40.0651 75.7422 39.8516C75.4505 39.6328 74.9375 39.4453 74.2031 39.2891C73.474 39.1328 72.8932 38.9453 72.4609 38.7266C72.0339 38.5078 71.7161 38.2474 71.5078 37.9453C71.3047 37.6432 71.2031 37.2839 71.2031 36.8672C71.2031 36.1745 71.4948 35.5885 72.0781 35.1094C72.6667 34.6302 73.4167 34.3906 74.3281 34.3906C75.2865 34.3906 76.0625 34.638 76.6562 35.1328C77.2552 35.6276 77.5547 36.2604 77.5547 37.0312H76.1016C76.1016 36.6354 75.9323 36.2943 75.5938 36.0078C75.2604 35.7214 74.8385 35.5781 74.3281 35.5781C73.8021 35.5781 73.3906 35.6927 73.0938 35.9219C72.7969 36.151 72.6484 36.4505 72.6484 36.8203C72.6484 37.1693 72.7865 37.4323 73.0625 37.6094C73.3385 37.7865 73.8359 37.9557 74.5547 38.1172C75.2786 38.2786 75.8646 38.4714 76.3125 38.6953C76.7604 38.9193 77.0911 39.1901 77.3047 39.5078C77.5234 39.8203 77.6328 40.2031 77.6328 40.6562C77.6328 41.4115 77.3307 42.0182 76.7266 42.4766C76.1224 42.9297 75.3385 43.1562 74.375 43.1562C73.6979 43.1562 73.099 43.0365 72.5781 42.7969C72.0573 42.5573 71.6484 42.224 71.3516 41.7969C71.0599 41.3646 70.9141 40.8984 70.9141 40.3984H72.3594C72.3854 40.8828 72.5781 41.2682 72.9375 41.5547C73.3021 41.8359 73.7812 41.9766 74.375 41.9766C74.9219 41.9766 75.3594 41.8672 75.6875 41.6484C76.0208 41.4245 76.1875 41.1276 76.1875 40.7578ZM83.0234 43.1562C81.8776 43.1562 80.9453 42.7812 80.2266 42.0312C79.5078 41.276 79.1484 40.2682 79.1484 39.0078V38.7422C79.1484 37.9036 79.3073 37.1562 79.625 36.5C79.9479 35.8385 80.3958 35.3229 80.9688 34.9531C81.5469 34.5781 82.1719 34.3906 82.8438 34.3906C83.9427 34.3906 84.7969 34.7526 85.4062 35.4766C86.0156 36.2005 86.3203 37.237 86.3203 38.5859V39.1875H80.5938C80.6146 40.0208 80.8568 40.6953 81.3203 41.2109C81.7891 41.7214 82.3828 41.9766 83.1016 41.9766C83.612 41.9766 84.0443 41.8724 84.3984 41.6641C84.7526 41.4557 85.0625 41.1797 85.3281 40.8359L86.2109 41.5234C85.5026 42.612 84.4401 43.1562 83.0234 43.1562ZM82.8438 35.5781C82.2604 35.5781 81.7708 35.7917 81.375 36.2188C80.9792 36.6406 80.7344 37.2344 80.6406 38H84.875V37.8906C84.8333 37.1562 84.6354 36.5885 84.2812 36.1875C83.9271 35.7812 83.4479 35.5781 82.8438 35.5781ZM89.5703 43H88.125V31H89.5703V43ZM93.4609 43H92.0156V34.5469H93.4609V43ZM91.8984 32.3047C91.8984 32.0703 91.9688 31.8724 92.1094 31.7109C92.2552 31.5495 92.4688 31.4688 92.75 31.4688C93.0312 31.4688 93.2448 31.5495 93.3906 31.7109C93.5365 31.8724 93.6094 32.0703 93.6094 32.3047C93.6094 32.5391 93.5365 32.7344 93.3906 32.8906C93.2448 33.0469 93.0312 33.125 92.75 33.125C92.4688 33.125 92.2552 33.0469 92.1094 32.8906C91.9688 32.7344 91.8984 32.5391 91.8984 32.3047ZM97.1484 34.5469L97.1953 35.6094C97.8411 34.7969 98.6849 34.3906 99.7266 34.3906C101.513 34.3906 102.414 35.3984 102.43 37.4141V43H100.984V37.4062C100.979 36.7969 100.839 36.3464 100.562 36.0547C100.292 35.763 99.8672 35.6172 99.2891 35.6172C98.8203 35.6172 98.4089 35.7422 98.0547 35.9922C97.7005 36.2422 97.4245 36.5703 97.2266 36.9766V43H95.7812V34.5469H97.1484ZM108.117 43.1562C106.971 43.1562 106.039 42.7812 105.32 42.0312C104.602 41.276 104.242 40.2682 104.242 39.0078V38.7422C104.242 37.9036 104.401 37.1562 104.719 36.5C105.042 35.8385 105.49 35.3229 106.062 34.9531C106.641 34.5781 107.266 34.3906 107.938 34.3906C109.036 34.3906 109.891 34.7526 110.5 35.4766C111.109 36.2005 111.414 37.237 111.414 38.5859V39.1875H105.688C105.708 40.0208 105.951 40.6953 106.414 41.2109C106.883 41.7214 107.477 41.9766 108.195 41.9766C108.706 41.9766 109.138 41.8724 109.492 41.6641C109.846 41.4557 110.156 41.1797 110.422 40.8359L111.305 41.5234C110.596 42.612 109.534 43.1562 108.117 43.1562ZM107.938 35.5781C107.354 35.5781 106.865 35.7917 106.469 36.2188C106.073 36.6406 105.828 37.2344 105.734 38H109.969V37.8906C109.927 37.1562 109.729 36.5885 109.375 36.1875C109.021 35.7812 108.542 35.5781 107.938 35.5781Z" transform="translate(7 379)" fill="#828282"/>
<path d="M5.89453 13.9492L8.70703 9.32031H11.2383L7.08984 15.5898L11.3672 22H8.85938L5.92969 17.2539L3 22H0.480469L4.75781 15.5898L0.609375 9.32031H3.11719L5.89453 13.9492ZM27 22H24.7383V14.1133H16.1367V22H13.8867V4.9375H16.1367V12.2734H24.7383V4.9375H27V22ZM35.918 22.2344C34.1992 22.2344 32.8008 21.6719 31.7227 20.5469C30.6445 19.4141 30.1055 17.9023 30.1055 16.0117V15.6133C30.1055 14.3555 30.3438 13.2344 30.8203 12.25C31.3047 11.2578 31.9766 10.4844 32.8359 9.92969C33.7031 9.36719 34.6406 9.08594 35.6484 9.08594C37.2969 9.08594 38.5781 9.62891 39.4922 10.7148C40.4062 11.8008 40.8633 13.3555 40.8633 15.3789V16.2812H32.2734C32.3047 17.5312 32.668 18.543 33.3633 19.3164C34.0664 20.082 34.957 20.4648 36.0352 20.4648C36.8008 20.4648 37.4492 20.3086 37.9805 19.9961C38.5117 19.6836 38.9766 19.2695 39.375 18.7539L40.6992 19.7852C39.6367 21.418 38.043 22.2344 35.918 22.2344ZM35.6484 10.8672C34.7734 10.8672 34.0391 11.1875 33.4453 11.8281C32.8516 12.4609 32.4844 13.3516 32.3438 14.5H38.6953V14.3359C38.6328 13.2344 38.3359 12.3828 37.8047 11.7812C37.2734 11.1719 36.5547 10.8672 35.6484 10.8672ZM45.7383 22H43.5703V9.32031H45.7383V22ZM43.3945 5.95703C43.3945 5.60547 43.5 5.30859 43.7109 5.06641C43.9297 4.82422 44.25 4.70312 44.6719 4.70312C45.0938 4.70312 45.4141 4.82422 45.6328 5.06641C45.8516 5.30859 45.9609 5.60547 45.9609 5.95703C45.9609 6.30859 45.8516 6.60156 45.6328 6.83594C45.4141 7.07031 45.0938 7.1875 44.6719 7.1875C44.25 7.1875 43.9297 7.07031 43.7109 6.83594C43.5 6.60156 43.3945 6.30859 43.3945 5.95703ZM48.7031 15.5547C48.7031 13.5781 49.1602 12.0078 50.0742 10.8438C50.9883 9.67188 52.1992 9.08594 53.707 9.08594C55.2539 9.08594 56.4609 9.63281 57.3281 10.7266L57.4336 9.32031H59.4141V21.6953C59.4141 23.3359 58.9258 24.6289 57.9492 25.5742C56.9805 26.5195 55.6758 26.9922 54.0352 26.9922C53.1211 26.9922 52.2266 26.7969 51.3516 26.4062C50.4766 26.0156 49.8086 25.4805 49.3477 24.8008L50.4727 23.5C51.4023 24.6484 52.5391 25.2227 53.8828 25.2227C54.9375 25.2227 55.7578 24.9258 56.3438 24.332C56.9375 23.7383 57.2344 22.9023 57.2344 21.8242V20.7344C56.3672 21.7344 55.1836 22.2344 53.6836 22.2344C52.1992 22.2344 50.9961 21.6367 50.0742 20.4414C49.1602 19.2461 48.7031 17.6172 48.7031 15.5547ZM50.8828 15.8008C50.8828 17.2305 51.1758 18.3555 51.7617 19.1758C52.3477 19.9883 53.168 20.3945 54.2227 20.3945C55.5898 20.3945 56.5938 19.7734 57.2344 18.5312V12.7422C56.5703 11.5312 55.5742 10.9258 54.2461 10.9258C53.1914 10.9258 52.3672 11.3359 51.7734 12.1562C51.1797 12.9766 50.8828 14.1914 50.8828 15.8008ZM64.8633 10.8555C65.8242 9.67578 67.0742 9.08594 68.6133 9.08594C71.293 9.08594 72.6445 10.5977 72.668 13.6211V22H70.5V13.6094C70.4922 12.6953 70.2812 12.0195 69.8672 11.582C69.4609 11.1445 68.8242 10.9258 67.957 10.9258C67.2539 10.9258 66.6367 11.1133 66.1055 11.4883C65.5742 11.8633 65.1602 12.3555 64.8633 12.9648V22H62.6953V4H64.8633V10.8555ZM78.8555 6.25V9.32031H81.2227V10.9961H78.8555V18.8594C78.8555 19.3672 78.9609 19.75 79.1719 20.0078C79.3828 20.2578 79.7422 20.3828 80.25 20.3828C80.5 20.3828 80.8438 20.3359 81.2812 20.2422V22C80.7109 22.1562 80.1562 22.2344 79.6172 22.2344C78.6484 22.2344 77.918 21.9414 77.4258 21.3555C76.9336 20.7695 76.6875 19.9375 76.6875 18.8594V10.9961H74.3789V9.32031H76.6875V6.25H78.8555Z" transform="translate(958 203)" fill="black"/>
<path d="M3.99609 22H1.82812V4H3.99609V22ZM9.83203 22H7.66406V9.32031H9.83203V22ZM7.48828 5.95703C7.48828 5.60547 7.59375 5.30859 7.80469 5.06641C8.02344 4.82422 8.34375 4.70312 8.76562 4.70312C9.1875 4.70312 9.50781 4.82422 9.72656 5.06641C9.94531 5.30859 10.0547 5.60547 10.0547 5.95703C10.0547 6.30859 9.94531 6.60156 9.72656 6.83594C9.50781 7.07031 9.1875 7.1875 8.76562 7.1875C8.34375 7.1875 8.02344 7.07031 7.80469 6.83594C7.59375 6.60156 7.48828 6.30859 7.48828 5.95703ZM15.3633 9.32031L15.4336 10.9141C16.4023 9.69531 17.668 9.08594 19.2305 9.08594C21.9102 9.08594 23.2617 10.5977 23.2852 13.6211V22H21.1172V13.6094C21.1094 12.6953 20.8984 12.0195 20.4844 11.582C20.0781 11.1445 19.4414 10.9258 18.5742 10.9258C17.8711 10.9258 17.2539 11.1133 16.7227 11.4883C16.1914 11.8633 15.7773 12.3555 15.4805 12.9648V22H13.3125V9.32031H15.3633ZM31.8164 22.2344C30.0977 22.2344 28.6992 21.6719 27.6211 20.5469C26.543 19.4141 26.0039 17.9023 26.0039 16.0117V15.6133C26.0039 14.3555 26.2422 13.2344 26.7188 12.25C27.2031 11.2578 27.875 10.4844 28.7344 9.92969C29.6016 9.36719 30.5391 9.08594 31.5469 9.08594C33.1953 9.08594 34.4766 9.62891 35.3906 10.7148C36.3047 11.8008 36.7617 13.3555 36.7617 15.3789V16.2812H28.1719C28.2031 17.5312 28.5664 18.543 29.2617 19.3164C29.9648 20.082 30.8555 20.4648 31.9336 20.4648C32.6992 20.4648 33.3477 20.3086 33.8789 19.9961C34.4102 19.6836 34.875 19.2695 35.2734 18.7539L36.5977 19.7852C35.5352 21.418 33.9414 22.2344 31.8164 22.2344ZM31.5469 10.8672C30.6719 10.8672 29.9375 11.1875 29.3438 11.8281C28.75 12.4609 28.3828 13.3516 28.2422 14.5H34.5938V14.3359C34.5312 13.2344 34.2344 12.3828 33.7031 11.7812C33.1719 11.1719 32.4531 10.8672 31.5469 10.8672ZM52.7344 22H50.4727V14.1133H41.8711V22H39.6211V4.9375H41.8711V12.2734H50.4727V4.9375H52.7344V22ZM61.6523 22.2344C59.9336 22.2344 58.5352 21.6719 57.457 20.5469C56.3789 19.4141 55.8398 17.9023 55.8398 16.0117V15.6133C55.8398 14.3555 56.0781 13.2344 56.5547 12.25C57.0391 11.2578 57.7109 10.4844 58.5703 9.92969C59.4375 9.36719 60.375 9.08594 61.3828 9.08594C63.0312 9.08594 64.3125 9.62891 65.2266 10.7148C66.1406 11.8008 66.5977 13.3555 66.5977 15.3789V16.2812H58.0078C58.0391 17.5312 58.4023 18.543 59.0977 19.3164C59.8008 20.082 60.6914 20.4648 61.7695 20.4648C62.5352 20.4648 63.1836 20.3086 63.7148 19.9961C64.2461 19.6836 64.7109 19.2695 65.1094 18.7539L66.4336 19.7852C65.3711 21.418 63.7773 22.2344 61.6523 22.2344ZM61.3828 10.8672C60.5078 10.8672 59.7734 11.1875 59.1797 11.8281C58.5859 12.4609 58.2188 13.3516 58.0781 14.5H64.4297V14.3359C64.3672 13.2344 64.0703 12.3828 63.5391 11.7812C63.0078 11.1719 62.2891 10.8672 61.3828 10.8672ZM71.4727 22H69.3047V9.32031H71.4727V22ZM69.1289 5.95703C69.1289 5.60547 69.2344 5.30859 69.4453 5.06641C69.6641 4.82422 69.9844 4.70312 70.4062 4.70312C70.8281 4.70312 71.1484 4.82422 71.3672 5.06641C71.5859 5.30859 71.6953 5.60547 71.6953 5.95703C71.6953 6.30859 71.5859 6.60156 71.3672 6.83594C71.1484 7.07031 70.8281 7.1875 70.4062 7.1875C69.9844 7.1875 69.6641 7.07031 69.4453 6.83594C69.2344 6.60156 69.1289 6.30859 69.1289 5.95703ZM74.4375 15.5547C74.4375 13.5781 74.8945 12.0078 75.8086 10.8438C76.7227 9.67188 77.9336 9.08594 79.4414 9.08594C80.9883 9.08594 82.1953 9.63281 83.0625 10.7266L83.168 9.32031H85.1484V21.6953C85.1484 23.3359 84.6602 24.6289 83.6836 25.5742C82.7148 26.5195 81.4102 26.9922 79.7695 26.9922C78.8555 26.9922 77.9609 26.7969 77.0859 26.4062C76.2109 26.0156 75.543 25.4805 75.082 24.8008L76.207 23.5C77.1367 24.6484 78.2734 25.2227 79.6172 25.2227C80.6719 25.2227 81.4922 24.9258 82.0781 24.332C82.6719 23.7383 82.9688 22.9023 82.9688 21.8242V20.7344C82.1016 21.7344 80.918 22.2344 79.418 22.2344C77.9336 22.2344 76.7305 21.6367 75.8086 20.4414C74.8945 19.2461 74.4375 17.6172 74.4375 15.5547ZM76.6172 15.8008C76.6172 17.2305 76.9102 18.3555 77.4961 19.1758C78.082 19.9883 78.9023 20.3945 79.957 20.3945C81.3242 20.3945 82.3281 19.7734 82.9688 18.5312V12.7422C82.3047 11.5312 81.3086 10.9258 79.9805 10.9258C78.9258 10.9258 78.1016 11.3359 77.5078 12.1562C76.9141 12.9766 76.6172 14.1914 76.6172 15.8008ZM90.5977 10.8555C91.5586 9.67578 92.8086 9.08594 94.3477 9.08594C97.0273 9.08594 98.3789 10.5977 98.4023 13.6211V22H96.2344V13.6094C96.2266 12.6953 96.0156 12.0195 95.6016 11.582C95.1953 11.1445 94.5586 10.9258 93.6914 10.9258C92.9883 10.9258 92.3711 11.1133 91.8398 11.4883C91.3086 11.8633 90.8945 12.3555 90.5977 12.9648V22H88.4297V4H90.5977V10.8555ZM104.59 6.25V9.32031H106.957V10.9961H104.59V18.8594C104.59 19.3672 104.695 19.75 104.906 20.0078C105.117 20.2578 105.477 20.3828 105.984 20.3828C106.234 20.3828 106.578 20.3359 107.016 20.2422V22C106.445 22.1562 105.891 22.2344 105.352 22.2344C104.383 22.2344 103.652 21.9414 103.16 21.3555C102.668 20.7695 102.422 19.9375 102.422 18.8594V10.9961H100.113V9.32031H102.422V6.25H104.59Z" transform="translate(1131 43)" fill="black"/>
<path d="M4.14062 9.32031L4.19922 10.7266C5.12891 9.63281 6.38281 9.08594 7.96094 9.08594C9.73438 9.08594 10.9414 9.76562 11.582 11.125C12.0039 10.5156 12.5508 10.0234 13.2227 9.64844C13.9023 9.27344 14.7031 9.08594 15.625 9.08594C18.4062 9.08594 19.8203 10.5586 19.8672 13.5039V22H17.6992V13.6328C17.6992 12.7266 17.4922 12.0508 17.0781 11.6055C16.6641 11.1523 15.9688 10.9258 14.9922 10.9258C14.1875 10.9258 13.5195 11.168 12.9883 11.6523C12.457 12.1289 12.1484 12.7734 12.0625 13.5859V22H9.88281V13.6914C9.88281 11.8477 8.98047 10.9258 7.17578 10.9258C5.75391 10.9258 4.78125 11.5312 4.25781 12.7422V22H2.08984V9.32031H4.14062ZM25.5039 22H23.3359V9.32031H25.5039V22ZM23.1602 5.95703C23.1602 5.60547 23.2656 5.30859 23.4766 5.06641C23.6953 4.82422 24.0156 4.70312 24.4375 4.70312C24.8594 4.70312 25.1797 4.82422 25.3984 5.06641C25.6172 5.30859 25.7266 5.60547 25.7266 5.95703C25.7266 6.30859 25.6172 6.60156 25.3984 6.83594C25.1797 7.07031 24.8594 7.1875 24.4375 7.1875C24.0156 7.1875 23.6953 7.07031 23.4766 6.83594C23.2656 6.60156 23.1602 6.30859 23.1602 5.95703ZM28.457 15.5547C28.457 13.6094 28.918 12.0469 29.8398 10.8672C30.7617 9.67969 31.9688 9.08594 33.4609 9.08594C34.9453 9.08594 36.1211 9.59375 36.9883 10.6094V4H39.1562V22H37.1641L37.0586 20.6406C36.1914 21.7031 34.9844 22.2344 33.4375 22.2344C31.9688 22.2344 30.7695 21.6328 29.8398 20.4297C28.918 19.2266 28.457 17.6562 28.457 15.7188V15.5547ZM30.625 15.8008C30.625 17.2383 30.9219 18.3633 31.5156 19.1758C32.1094 19.9883 32.9297 20.3945 33.9766 20.3945C35.3516 20.3945 36.3555 19.7773 36.9883 18.543V12.7188C36.3398 11.5234 35.3438 10.9258 34 10.9258C32.9375 10.9258 32.1094 11.3359 31.5156 12.1562C30.9219 12.9766 30.625 14.1914 30.625 15.8008ZM42.0039 15.5547C42.0039 13.6094 42.4648 12.0469 43.3867 10.8672C44.3086 9.67969 45.5156 9.08594 47.0078 9.08594C48.4922 9.08594 49.668 9.59375 50.5352 10.6094V4H52.7031V22H50.7109L50.6055 20.6406C49.7383 21.7031 48.5312 22.2344 46.9844 22.2344C45.5156 22.2344 44.3164 21.6328 43.3867 20.4297C42.4648 19.2266 42.0039 17.6562 42.0039 15.7188V15.5547ZM44.1719 15.8008C44.1719 17.2383 44.4688 18.3633 45.0625 19.1758C45.6562 19.9883 46.4766 20.3945 47.5234 20.3945C48.8984 20.3945 49.9023 19.7773 50.5352 18.543V12.7188C49.8867 11.5234 48.8906 10.9258 47.5469 10.9258C46.4844 10.9258 45.6562 11.3359 45.0625 12.1562C44.4688 12.9766 44.1719 14.1914 44.1719 15.8008ZM58.4336 22H56.2656V4H58.4336V22ZM67.1758 22.2344C65.457 22.2344 64.0586 21.6719 62.9805 20.5469C61.9023 19.4141 61.3633 17.9023 61.3633 16.0117V15.6133C61.3633 14.3555 61.6016 13.2344 62.0781 12.25C62.5625 11.2578 63.2344 10.4844 64.0938 9.92969C64.9609 9.36719 65.8984 9.08594 66.9062 9.08594C68.5547 9.08594 69.8359 9.62891 70.75 10.7148C71.6641 11.8008 72.1211 13.3555 72.1211 15.3789V16.2812H63.5312C63.5625 17.5312 63.9258 18.543 64.6211 19.3164C65.3242 20.082 66.2148 20.4648 67.293 20.4648C68.0586 20.4648 68.707 20.3086 69.2383 19.9961C69.7695 19.6836 70.2344 19.2695 70.6328 18.7539L71.957 19.7852C70.8945 21.418 69.3008 22.2344 67.1758 22.2344ZM66.9062 10.8672C66.0312 10.8672 65.2969 11.1875 64.7031 11.8281C64.1094 12.4609 63.7422 13.3516 63.6016 14.5H69.9531V14.3359C69.8906 13.2344 69.5938 12.3828 69.0625 11.7812C68.5312 11.1719 67.8125 10.8672 66.9062 10.8672Z" transform="translate(46 270)" fill="black"/>
<path d="M22.4844 34.5469L22.5234 35.4844C23.1432 34.7552 23.9792 34.3906 25.0312 34.3906C26.2135 34.3906 27.0182 34.8438 27.4453 35.75C27.7266 35.3438 28.0911 35.0156 28.5391 34.7656C28.9922 34.5156 29.526 34.3906 30.1406 34.3906C31.9948 34.3906 32.9375 35.3724 32.9688 37.3359V43H31.5234V37.4219C31.5234 36.8177 31.3854 36.3672 31.1094 36.0703C30.8333 35.7682 30.3698 35.6172 29.7188 35.6172C29.1823 35.6172 28.737 35.7786 28.3828 36.1016C28.0286 36.4193 27.8229 36.849 27.7656 37.3906V43H26.3125V37.4609C26.3125 36.2318 25.7109 35.6172 24.5078 35.6172C23.5599 35.6172 22.9115 36.0208 22.5625 36.8281V43H21.1172V34.5469H22.4844ZM38.6641 43.1562C37.5182 43.1562 36.5859 42.7812 35.8672 42.0312C35.1484 41.276 34.7891 40.2682 34.7891 39.0078V38.7422C34.7891 37.9036 34.9479 37.1562 35.2656 36.5C35.5885 35.8385 36.0365 35.3229 36.6094 34.9531C37.1875 34.5781 37.8125 34.3906 38.4844 34.3906C39.5833 34.3906 40.4375 34.7526 41.0469 35.4766C41.6562 36.2005 41.9609 37.237 41.9609 38.5859V39.1875H36.2344C36.2552 40.0208 36.4974 40.6953 36.9609 41.2109C37.4297 41.7214 38.0234 41.9766 38.7422 41.9766C39.2526 41.9766 39.6849 41.8724 40.0391 41.6641C40.3932 41.4557 40.7031 41.1797 40.9688 40.8359L41.8516 41.5234C41.1432 42.612 40.0807 43.1562 38.6641 43.1562ZM38.4844 35.5781C37.901 35.5781 37.4115 35.7917 37.0156 36.2188C36.6198 36.6406 36.375 37.2344 36.2812 38H40.5156V37.8906C40.474 37.1562 40.276 36.5885 39.9219 36.1875C39.5677 35.7812 39.0885 35.5781 38.4844 35.5781ZM43.2891 38.7031C43.2891 37.4062 43.5964 36.3646 44.2109 35.5781C44.8255 34.7865 45.6302 34.3906 46.625 34.3906C47.6146 34.3906 48.3984 34.7292 48.9766 35.4062V31H50.4219V43H49.0938L49.0234 42.0938C48.4453 42.8021 47.6406 43.1562 46.6094 43.1562C45.6302 43.1562 44.8307 42.7552 44.2109 41.9531C43.5964 41.151 43.2891 40.1042 43.2891 38.8125V38.7031ZM44.7344 38.8672C44.7344 39.8255 44.9323 40.5755 45.3281 41.1172C45.724 41.6589 46.2708 41.9297 46.9688 41.9297C47.8854 41.9297 48.5547 41.5182 48.9766 40.6953V36.8125C48.5443 36.0156 47.8802 35.6172 46.9844 35.6172C46.276 35.6172 45.724 35.8906 45.3281 36.4375C44.9323 36.9844 44.7344 37.7943 44.7344 38.8672ZM54.2422 43H52.7969V34.5469H54.2422V43ZM52.6797 32.3047C52.6797 32.0703 52.75 31.8724 52.8906 31.7109C53.0365 31.5495 53.25 31.4688 53.5312 31.4688C53.8125 31.4688 54.026 31.5495 54.1719 31.7109C54.3177 31.8724 54.3906 32.0703 54.3906 32.3047C54.3906 32.5391 54.3177 32.7344 54.1719 32.8906C54.026 33.0469 53.8125 33.125 53.5312 33.125C53.25 33.125 53.0365 33.0469 52.8906 32.8906C52.75 32.7344 52.6797 32.5391 52.6797 32.3047ZM61.7812 43C61.6979 42.8333 61.6302 42.5365 61.5781 42.1094C60.9062 42.8073 60.1042 43.1562 59.1719 43.1562C58.3385 43.1562 57.6536 42.9219 57.1172 42.4531C56.5859 41.9792 56.3203 41.3802 56.3203 40.6562C56.3203 39.776 56.6536 39.0938 57.3203 38.6094C57.9922 38.1198 58.9349 37.875 60.1484 37.875H61.5547V37.2109C61.5547 36.7057 61.4036 36.3047 61.1016 36.0078C60.7995 35.7057 60.3542 35.5547 59.7656 35.5547C59.25 35.5547 58.8177 35.6849 58.4688 35.9453C58.1198 36.2057 57.9453 36.5208 57.9453 36.8906H56.4922C56.4922 36.4688 56.6406 36.0625 56.9375 35.6719C57.2396 35.276 57.6458 34.9635 58.1562 34.7344C58.6719 34.5052 59.237 34.3906 59.8516 34.3906C60.8255 34.3906 61.5885 34.6354 62.1406 35.125C62.6927 35.6094 62.9792 36.2786 63 37.1328V41.0234C63 41.7995 63.099 42.4167 63.2969 42.875V43H61.7812ZM59.3828 41.8984C59.8359 41.8984 60.2656 41.7812 60.6719 41.5469C61.0781 41.3125 61.3724 41.0078 61.5547 40.6328V38.8984H60.4219C58.651 38.8984 57.7656 39.4167 57.7656 40.4531C57.7656 40.9062 57.9167 41.2604 58.2188 41.5156C58.5208 41.7708 58.9089 41.8984 59.3828 41.8984ZM66.6328 34.5469L66.6797 35.6094C67.3255 34.7969 68.1693 34.3906 69.2109 34.3906C70.9974 34.3906 71.8984 35.3984 71.9141 37.4141V43H70.4688V37.4062C70.4635 36.7969 70.3229 36.3464 70.0469 36.0547C69.776 35.763 69.3516 35.6172 68.7734 35.6172C68.3047 35.6172 67.8932 35.7422 67.5391 35.9922C67.1849 36.2422 66.9089 36.5703 66.7109 36.9766V43H65.2656V34.5469H66.6328Z" transform="translate(46 270)" fill="#828282"/>
<path d="M4.56641 22H2.39844V4H4.56641V22ZM7.47266 15.543C7.47266 14.3008 7.71484 13.1836 8.19922 12.1914C8.69141 11.1992 9.37109 10.4336 10.2383 9.89453C11.1133 9.35547 12.1094 9.08594 13.2266 9.08594C14.9531 9.08594 16.3477 9.68359 17.4102 10.8789C18.4805 12.0742 19.0156 13.6641 19.0156 15.6484V15.8008C19.0156 17.0352 18.7773 18.1445 18.3008 19.1289C17.832 20.1055 17.1562 20.8672 16.2734 21.4141C15.3984 21.9609 14.3906 22.2344 13.25 22.2344C11.5312 22.2344 10.1367 21.6367 9.06641 20.4414C8.00391 19.2461 7.47266 17.6641 7.47266 15.6953V15.543ZM9.65234 15.8008C9.65234 17.207 9.97656 18.3359 10.625 19.1875C11.2812 20.0391 12.1562 20.4648 13.25 20.4648C14.3516 20.4648 15.2266 20.0352 15.875 19.1758C16.5234 18.3086 16.8477 17.0977 16.8477 15.543C16.8477 14.1523 16.5156 13.0273 15.8516 12.168C15.1953 11.3008 14.3203 10.8672 13.2266 10.8672C12.1562 10.8672 11.293 11.293 10.6367 12.1445C9.98047 12.9961 9.65234 14.2148 9.65234 15.8008ZM32.9609 19.0117L35.3984 9.32031H37.5664L33.875 22H32.1172L29.0352 12.3906L26.0352 22H24.2773L20.5977 9.32031H22.7539L25.25 18.8125L28.2031 9.32031H29.9492L32.9609 19.0117ZM45.043 22.2344C43.3242 22.2344 41.9258 21.6719 40.8477 20.5469C39.7695 19.4141 39.2305 17.9023 39.2305 16.0117V15.6133C39.2305 14.3555 39.4688 13.2344 39.9453 12.25C40.4297 11.2578 41.1016 10.4844 41.9609 9.92969C42.8281 9.36719 43.7656 9.08594 44.7734 9.08594C46.4219 9.08594 47.7031 9.62891 48.6172 10.7148C49.5312 11.8008 49.9883 13.3555 49.9883 15.3789V16.2812H41.3984C41.4297 17.5312 41.793 18.543 42.4883 19.3164C43.1914 20.082 44.082 20.4648 45.1602 20.4648C45.9258 20.4648 46.5742 20.3086 47.1055 19.9961C47.6367 19.6836 48.1016 19.2695 48.5 18.7539L49.8242 19.7852C48.7617 21.418 47.168 22.2344 45.043 22.2344ZM44.7734 10.8672C43.8984 10.8672 43.1641 11.1875 42.5703 11.8281C41.9766 12.4609 41.6094 13.3516 41.4688 14.5H47.8203V14.3359C47.7578 13.2344 47.4609 12.3828 46.9297 11.7812C46.3984 11.1719 45.6797 10.8672 44.7734 10.8672ZM58.6367 11.2656C58.3086 11.2109 57.9531 11.1836 57.5703 11.1836C56.1484 11.1836 55.1836 11.7891 54.6758 13V22H52.5078V9.32031H54.6172L54.6523 10.7852C55.3633 9.65234 56.3711 9.08594 57.6758 9.08594C58.0977 9.08594 58.418 9.14062 58.6367 9.25V11.2656Z" transform="translate(60 226)" fill="black"/>
<path d="M10.4141 20.7461C9.57031 21.7383 8.33203 22.2344 6.69922 22.2344C5.34766 22.2344 4.31641 21.8438 3.60547 21.0625C2.90234 20.2734 2.54688 19.1094 2.53906 17.5703V9.32031H4.70703V17.5117C4.70703 19.4336 5.48828 20.3945 7.05078 20.3945C8.70703 20.3945 9.80859 19.7773 10.3555 18.543V9.32031H12.5234V22H10.4609L10.4141 20.7461ZM26.5391 15.8008C26.5391 17.7305 26.0977 19.2852 25.2148 20.4648C24.332 21.6445 23.1367 22.2344 21.6289 22.2344C20.0898 22.2344 18.8789 21.7461 17.9961 20.7695V26.875H15.8281V9.32031H17.8086L17.9141 10.7266C18.7969 9.63281 20.0234 9.08594 21.5938 9.08594C23.1172 9.08594 24.3203 9.66016 25.2031 10.8086C26.0938 11.957 26.5391 13.5547 26.5391 15.6016V15.8008ZM24.3711 15.5547C24.3711 14.125 24.0664 12.9961 23.457 12.168C22.8477 11.3398 22.0117 10.9258 20.9492 10.9258C19.6367 10.9258 18.6523 11.5078 17.9961 12.6719V18.7305C18.6445 19.8867 19.6367 20.4648 20.9727 20.4648C22.0117 20.4648 22.8359 20.0547 23.4453 19.2344C24.0625 18.4062 24.3711 17.1797 24.3711 15.5547ZM40.0156 15.8008C40.0156 17.7305 39.5742 19.2852 38.6914 20.4648C37.8086 21.6445 36.6133 22.2344 35.1055 22.2344C33.5664 22.2344 32.3555 21.7461 31.4727 20.7695V26.875H29.3047V9.32031H31.2852L31.3906 10.7266C32.2734 9.63281 33.5 9.08594 35.0703 9.08594C36.5938 9.08594 37.7969 9.66016 38.6797 10.8086C39.5703 11.957 40.0156 13.5547 40.0156 15.6016V15.8008ZM37.8477 15.5547C37.8477 14.125 37.543 12.9961 36.9336 12.168C36.3242 11.3398 35.4883 10.9258 34.4258 10.9258C33.1133 10.9258 32.1289 11.5078 31.4727 12.6719V18.7305C32.1211 19.8867 33.1133 20.4648 34.4492 20.4648C35.4883 20.4648 36.3125 20.0547 36.9219 19.2344C37.5391 18.4062 37.8477 17.1797 37.8477 15.5547ZM48.043 22.2344C46.3242 22.2344 44.9258 21.6719 43.8477 20.5469C42.7695 19.4141 42.2305 17.9023 42.2305 16.0117V15.6133C42.2305 14.3555 42.4688 13.2344 42.9453 12.25C43.4297 11.2578 44.1016 10.4844 44.9609 9.92969C45.8281 9.36719 46.7656 9.08594 47.7734 9.08594C49.4219 9.08594 50.7031 9.62891 51.6172 10.7148C52.5312 11.8008 52.9883 13.3555 52.9883 15.3789V16.2812H44.3984C44.4297 17.5312 44.793 18.543 45.4883 19.3164C46.1914 20.082 47.082 20.4648 48.1602 20.4648C48.9258 20.4648 49.5742 20.3086 50.1055 19.9961C50.6367 19.6836 51.1016 19.2695 51.5 18.7539L52.8242 19.7852C51.7617 21.418 50.168 22.2344 48.043 22.2344ZM47.7734 10.8672C46.8984 10.8672 46.1641 11.1875 45.5703 11.8281C44.9766 12.4609 44.6094 13.3516 44.4688 14.5H50.8203V14.3359C50.7578 13.2344 50.4609 12.3828 49.9297 11.7812C49.3984 11.1719 48.6797 10.8672 47.7734 10.8672ZM61.6367 11.2656C61.3086 11.2109 60.9531 11.1836 60.5703 11.1836C59.1484 11.1836 58.1836 11.7891 57.6758 13V22H55.5078V9.32031H57.6172L57.6523 10.7852C58.3633 9.65234 59.3711 9.08594 60.6758 9.08594C61.0977 9.08594 61.418 9.14062 61.6367 9.25V11.2656Z" transform="translate(57 177)" fill="black"/>
<path d="M6.72656 20.4648C7.5 20.4648 8.17578 20.2305 8.75391 19.7617C9.33203 19.293 9.65234 18.707 9.71484 18.0039H11.7656C11.7266 18.7305 11.4766 19.4219 11.0156 20.0781C10.5547 20.7344 9.9375 21.2578 9.16406 21.6484C8.39844 22.0391 7.58594 22.2344 6.72656 22.2344C5 22.2344 3.625 21.6602 2.60156 20.5117C1.58594 19.3555 1.07812 17.7773 1.07812 15.7773V15.4141C1.07812 14.1797 1.30469 13.082 1.75781 12.1211C2.21094 11.1602 2.85938 10.4141 3.70312 9.88281C4.55469 9.35156 5.55859 9.08594 6.71484 9.08594C8.13672 9.08594 9.31641 9.51172 10.2539 10.3633C11.1992 11.2148 11.7031 12.3203 11.7656 13.6797H9.71484C9.65234 12.8594 9.33984 12.1875 8.77734 11.6641C8.22266 11.1328 7.53516 10.8672 6.71484 10.8672C5.61328 10.8672 4.75781 11.2656 4.14844 12.0625C3.54688 12.8516 3.24609 13.9961 3.24609 15.4961V15.9062C3.24609 17.3672 3.54688 18.4922 4.14844 19.2812C4.75 20.0703 5.60938 20.4648 6.72656 20.4648ZM22.0312 22C21.9062 21.75 21.8047 21.3047 21.7266 20.6641C20.7188 21.7109 19.5156 22.2344 18.1172 22.2344C16.8672 22.2344 15.8398 21.8828 15.0352 21.1797C14.2383 20.4688 13.8398 19.5703 13.8398 18.4844C13.8398 17.1641 14.3398 16.1406 15.3398 15.4141C16.3477 14.6797 17.7617 14.3125 19.582 14.3125H21.6914V13.3164C21.6914 12.5586 21.4648 11.957 21.0117 11.5117C20.5586 11.0586 19.8906 10.832 19.0078 10.832C18.2344 10.832 17.5859 11.0273 17.0625 11.418C16.5391 11.8086 16.2773 12.2812 16.2773 12.8359H14.0977C14.0977 12.2031 14.3203 11.5938 14.7656 11.0078C15.2188 10.4141 15.8281 9.94531 16.5938 9.60156C17.3672 9.25781 18.2148 9.08594 19.1367 9.08594C20.5977 9.08594 21.7422 9.45312 22.5703 10.1875C23.3984 10.9141 23.8281 11.918 23.8594 13.1992V19.0352C23.8594 20.1992 24.0078 21.125 24.3047 21.8125V22H22.0312ZM18.4336 20.3477C19.1133 20.3477 19.7578 20.1719 20.3672 19.8203C20.9766 19.4688 21.418 19.0117 21.6914 18.4492V15.8477H19.9922C17.3359 15.8477 16.0078 16.625 16.0078 18.1797C16.0078 18.8594 16.2344 19.3906 16.6875 19.7734C17.1406 20.1562 17.7227 20.3477 18.4336 20.3477ZM37.9688 15.8008C37.9688 17.7305 37.5273 19.2852 36.6445 20.4648C35.7617 21.6445 34.5664 22.2344 33.0586 22.2344C31.5195 22.2344 30.3086 21.7461 29.4258 20.7695V26.875H27.2578V9.32031H29.2383L29.3438 10.7266C30.2266 9.63281 31.4531 9.08594 33.0234 9.08594C34.5469 9.08594 35.75 9.66016 36.6328 10.8086C37.5234 11.957 37.9688 13.5547 37.9688 15.6016V15.8008ZM35.8008 15.5547C35.8008 14.125 35.4961 12.9961 34.8867 12.168C34.2773 11.3398 33.4414 10.9258 32.3789 10.9258C31.0664 10.9258 30.082 11.5078 29.4258 12.6719V18.7305C30.0742 19.8867 31.0664 20.4648 32.4023 20.4648C33.4414 20.4648 34.2656 20.0547 34.875 19.2344C35.4922 18.4062 35.8008 17.1797 35.8008 15.5547ZM54.1875 22H51.9258V14.1133H43.3242V22H41.0742V4.9375H43.3242V12.2734H51.9258V4.9375H54.1875V22ZM63.1055 22.2344C61.3867 22.2344 59.9883 21.6719 58.9102 20.5469C57.832 19.4141 57.293 17.9023 57.293 16.0117V15.6133C57.293 14.3555 57.5312 13.2344 58.0078 12.25C58.4922 11.2578 59.1641 10.4844 60.0234 9.92969C60.8906 9.36719 61.8281 9.08594 62.8359 9.08594C64.4844 9.08594 65.7656 9.62891 66.6797 10.7148C67.5938 11.8008 68.0508 13.3555 68.0508 15.3789V16.2812H59.4609C59.4922 17.5312 59.8555 18.543 60.5508 19.3164C61.2539 20.082 62.1445 20.4648 63.2227 20.4648C63.9883 20.4648 64.6367 20.3086 65.168 19.9961C65.6992 19.6836 66.1641 19.2695 66.5625 18.7539L67.8867 19.7852C66.8242 21.418 65.2305 22.2344 63.1055 22.2344ZM62.8359 10.8672C61.9609 10.8672 61.2266 11.1875 60.6328 11.8281C60.0391 12.4609 59.6719 13.3516 59.5312 14.5H65.8828V14.3359C65.8203 13.2344 65.5234 12.3828 64.9922 11.7812C64.4609 11.1719 63.7422 10.8672 62.8359 10.8672ZM72.9258 22H70.7578V9.32031H72.9258V22ZM70.582 5.95703C70.582 5.60547 70.6875 5.30859 70.8984 5.06641C71.1172 4.82422 71.4375 4.70312 71.8594 4.70312C72.2812 4.70312 72.6016 4.82422 72.8203 5.06641C73.0391 5.30859 73.1484 5.60547 73.1484 5.95703C73.1484 6.30859 73.0391 6.60156 72.8203 6.83594C72.6016 7.07031 72.2812 7.1875 71.8594 7.1875C71.4375 7.1875 71.1172 7.07031 70.8984 6.83594C70.6875 6.60156 70.582 6.30859 70.582 5.95703ZM75.8906 15.5547C75.8906 13.5781 76.3477 12.0078 77.2617 10.8438C78.1758 9.67188 79.3867 9.08594 80.8945 9.08594C82.4414 9.08594 83.6484 9.63281 84.5156 10.7266L84.6211 9.32031H86.6016V21.6953C86.6016 23.3359 86.1133 24.6289 85.1367 25.5742C84.168 26.5195 82.8633 26.9922 81.2227 26.9922C80.3086 26.9922 79.4141 26.7969 78.5391 26.4062C77.6641 26.0156 76.9961 25.4805 76.5352 24.8008L77.6602 23.5C78.5898 24.6484 79.7266 25.2227 81.0703 25.2227C82.125 25.2227 82.9453 24.9258 83.5312 24.332C84.125 23.7383 84.4219 22.9023 84.4219 21.8242V20.7344C83.5547 21.7344 82.3711 22.2344 80.8711 22.2344C79.3867 22.2344 78.1836 21.6367 77.2617 20.4414C76.3477 19.2461 75.8906 17.6172 75.8906 15.5547ZM78.0703 15.8008C78.0703 17.2305 78.3633 18.3555 78.9492 19.1758C79.5352 19.9883 80.3555 20.3945 81.4102 20.3945C82.7773 20.3945 83.7812 19.7734 84.4219 18.5312V12.7422C83.7578 11.5312 82.7617 10.9258 81.4336 10.9258C80.3789 10.9258 79.5547 11.3359 78.9609 12.1562C78.3672 12.9766 78.0703 14.1914 78.0703 15.8008ZM92.0508 10.8555C93.0117 9.67578 94.2617 9.08594 95.8008 9.08594C98.4805 9.08594 99.832 10.5977 99.8555 13.6211V22H97.6875V13.6094C97.6797 12.6953 97.4688 12.0195 97.0547 11.582C96.6484 11.1445 96.0117 10.9258 95.1445 10.9258C94.4414 10.9258 93.8242 11.1133 93.293 11.4883C92.7617 11.8633 92.3477 12.3555 92.0508 12.9648V22H89.8828V4H92.0508V10.8555ZM106.043 6.25V9.32031H108.41V10.9961H106.043V18.8594C106.043 19.3672 106.148 19.75 106.359 20.0078C106.57 20.2578 106.93 20.3828 107.438 20.3828C107.688 20.3828 108.031 20.3359 108.469 20.2422V22C107.898 22.1562 107.344 22.2344 106.805 22.2344C105.836 22.2344 105.105 21.9414 104.613 21.3555C104.121 20.7695 103.875 19.9375 103.875 18.8594V10.9961H101.566V9.32031H103.875V6.25H106.043Z" transform="translate(153 146)" fill="black"/>
<path d="M9.46875 22C9.34375 21.75 9.24219 21.3047 9.16406 20.6641C8.15625 21.7109 6.95312 22.2344 5.55469 22.2344C4.30469 22.2344 3.27734 21.8828 2.47266 21.1797C1.67578 20.4688 1.27734 19.5703 1.27734 18.4844C1.27734 17.1641 1.77734 16.1406 2.77734 15.4141C3.78516 14.6797 5.19922 14.3125 7.01953 14.3125H9.12891V13.3164C9.12891 12.5586 8.90234 11.957 8.44922 11.5117C7.99609 11.0586 7.32812 10.832 6.44531 10.832C5.67188 10.832 5.02344 11.0273 4.5 11.418C3.97656 11.8086 3.71484 12.2812 3.71484 12.8359H1.53516C1.53516 12.2031 1.75781 11.5938 2.20312 11.0078C2.65625 10.4141 3.26562 9.94531 4.03125 9.60156C4.80469 9.25781 5.65234 9.08594 6.57422 9.08594C8.03516 9.08594 9.17969 9.45312 10.0078 10.1875C10.8359 10.9141 11.2656 11.918 11.2969 13.1992V19.0352C11.2969 20.1992 11.4453 21.125 11.7422 21.8125V22H9.46875ZM5.87109 20.3477C6.55078 20.3477 7.19531 20.1719 7.80469 19.8203C8.41406 19.4688 8.85547 19.0117 9.12891 18.4492V15.8477H7.42969C4.77344 15.8477 3.44531 16.625 3.44531 18.1797C3.44531 18.8594 3.67188 19.3906 4.125 19.7734C4.57812 20.1562 5.16016 20.3477 5.87109 20.3477ZM22.0781 18.6367C22.0781 18.0508 21.8555 17.5977 21.4102 17.2773C20.9727 16.9492 20.2031 16.668 19.1016 16.4336C18.0078 16.1992 17.1367 15.918 16.4883 15.5898C15.8477 15.2617 15.3711 14.8711 15.0586 14.418C14.7539 13.9648 14.6016 13.4258 14.6016 12.8008C14.6016 11.7617 15.0391 10.8828 15.9141 10.1641C16.7969 9.44531 17.9219 9.08594 19.2891 9.08594C20.7266 9.08594 21.8906 9.45703 22.7812 10.1992C23.6797 10.9414 24.1289 11.8906 24.1289 13.0469H21.9492C21.9492 12.4531 21.6953 11.9414 21.1875 11.5117C20.6875 11.082 20.0547 10.8672 19.2891 10.8672C18.5 10.8672 17.8828 11.0391 17.4375 11.3828C16.9922 11.7266 16.7695 12.1758 16.7695 12.7305C16.7695 13.2539 16.9766 13.6484 17.3906 13.9141C17.8047 14.1797 18.5508 14.4336 19.6289 14.6758C20.7148 14.918 21.5938 15.207 22.2656 15.543C22.9375 15.8789 23.4336 16.2852 23.7539 16.7617C24.082 17.2305 24.2461 17.8047 24.2461 18.4844C24.2461 19.6172 23.793 20.5273 22.8867 21.2148C21.9805 21.8945 20.8047 22.2344 19.3594 22.2344C18.3438 22.2344 17.4453 22.0547 16.6641 21.6953C15.8828 21.3359 15.2695 20.8359 14.8242 20.1953C14.3867 19.5469 14.168 18.8477 14.168 18.0977H16.3359C16.375 18.8242 16.6641 19.4023 17.2031 19.832C17.75 20.2539 18.4688 20.4648 19.3594 20.4648C20.1797 20.4648 20.8359 20.3008 21.3281 19.9727C21.8281 19.6367 22.0781 19.1914 22.0781 18.6367ZM32.1562 20.4648C32.9297 20.4648 33.6055 20.2305 34.1836 19.7617C34.7617 19.293 35.082 18.707 35.1445 18.0039H37.1953C37.1562 18.7305 36.9062 19.4219 36.4453 20.0781C35.9844 20.7344 35.3672 21.2578 34.5938 21.6484C33.8281 22.0391 33.0156 22.2344 32.1562 22.2344C30.4297 22.2344 29.0547 21.6602 28.0312 20.5117C27.0156 19.3555 26.5078 17.7773 26.5078 15.7773V15.4141C26.5078 14.1797 26.7344 13.082 27.1875 12.1211C27.6406 11.1602 28.2891 10.4141 29.1328 9.88281C29.9844 9.35156 30.9883 9.08594 32.1445 9.08594C33.5664 9.08594 34.7461 9.51172 35.6836 10.3633C36.6289 11.2148 37.1328 12.3203 37.1953 13.6797H35.1445C35.082 12.8594 34.7695 12.1875 34.207 11.6641C33.6523 11.1328 32.9648 10.8672 32.1445 10.8672C31.043 10.8672 30.1875 11.2656 29.5781 12.0625C28.9766 12.8516 28.6758 13.9961 28.6758 15.4961V15.9062C28.6758 17.3672 28.9766 18.4922 29.5781 19.2812C30.1797 20.0703 31.0391 20.4648 32.1562 20.4648ZM44.8945 22.2344C43.1758 22.2344 41.7773 21.6719 40.6992 20.5469C39.6211 19.4141 39.082 17.9023 39.082 16.0117V15.6133C39.082 14.3555 39.3203 13.2344 39.7969 12.25C40.2812 11.2578 40.9531 10.4844 41.8125 9.92969C42.6797 9.36719 43.6172 9.08594 44.625 9.08594C46.2734 9.08594 47.5547 9.62891 48.4688 10.7148C49.3828 11.8008 49.8398 13.3555 49.8398 15.3789V16.2812H41.25C41.2812 17.5312 41.6445 18.543 42.3398 19.3164C43.043 20.082 43.9336 20.4648 45.0117 20.4648C45.7773 20.4648 46.4258 20.3086 46.957 19.9961C47.4883 19.6836 47.9531 19.2695 48.3516 18.7539L49.6758 19.7852C48.6133 21.418 47.0195 22.2344 44.8945 22.2344ZM44.625 10.8672C43.75 10.8672 43.0156 11.1875 42.4219 11.8281C41.8281 12.4609 41.4609 13.3516 41.3203 14.5H47.6719V14.3359C47.6094 13.2344 47.3125 12.3828 46.7812 11.7812C46.25 11.1719 45.5312 10.8672 44.625 10.8672ZM54.4102 9.32031L54.4805 10.9141C55.4492 9.69531 56.7148 9.08594 58.2773 9.08594C60.957 9.08594 62.3086 10.5977 62.332 13.6211V22H60.1641V13.6094C60.1562 12.6953 59.9453 12.0195 59.5312 11.582C59.125 11.1445 58.4883 10.9258 57.6211 10.9258C56.918 10.9258 56.3008 11.1133 55.7695 11.4883C55.2383 11.8633 54.8242 12.3555 54.5273 12.9648V22H52.3594V9.32031H54.4102ZM68.543 6.25V9.32031H70.9102V10.9961H68.543V18.8594C68.543 19.3672 68.6484 19.75 68.8594 20.0078C69.0703 20.2578 69.4297 20.3828 69.9375 20.3828C70.1875 20.3828 70.5312 20.3359 70.9688 20.2422V22C70.3984 22.1562 69.8438 22.2344 69.3047 22.2344C68.3359 22.2344 67.6055 21.9414 67.1133 21.3555C66.6211 20.7695 66.375 19.9375 66.375 18.8594V10.9961H64.0664V9.32031H66.375V6.25H68.543Z" transform="translate(558 43)" fill="black"/>
<path d="M1.11328 15.5547C1.11328 13.6094 1.57422 12.0469 2.49609 10.8672C3.41797 9.67969 4.625 9.08594 6.11719 9.08594C7.60156 9.08594 8.77734 9.59375 9.64453 10.6094V4H11.8125V22H9.82031L9.71484 20.6406C8.84766 21.7031 7.64062 22.2344 6.09375 22.2344C4.625 22.2344 3.42578 21.6328 2.49609 20.4297C1.57422 19.2266 1.11328 17.6562 1.11328 15.7188V15.5547ZM3.28125 15.8008C3.28125 17.2383 3.57812 18.3633 4.17188 19.1758C4.76562 19.9883 5.58594 20.3945 6.63281 20.3945C8.00781 20.3945 9.01172 19.7773 9.64453 18.543V12.7188C8.99609 11.5234 8 10.9258 6.65625 10.9258C5.59375 10.9258 4.76562 11.3359 4.17188 12.1562C3.57812 12.9766 3.28125 14.1914 3.28125 15.8008ZM20.4492 22.2344C18.7305 22.2344 17.332 21.6719 16.2539 20.5469C15.1758 19.4141 14.6367 17.9023 14.6367 16.0117V15.6133C14.6367 14.3555 14.875 13.2344 15.3516 12.25C15.8359 11.2578 16.5078 10.4844 17.3672 9.92969C18.2344 9.36719 19.1719 9.08594 20.1797 9.08594C21.8281 9.08594 23.1094 9.62891 24.0234 10.7148C24.9375 11.8008 25.3945 13.3555 25.3945 15.3789V16.2812H16.8047C16.8359 17.5312 17.1992 18.543 17.8945 19.3164C18.5977 20.082 19.4883 20.4648 20.5664 20.4648C21.332 20.4648 21.9805 20.3086 22.5117 19.9961C23.043 19.6836 23.5078 19.2695 23.9062 18.7539L25.2305 19.7852C24.168 21.418 22.5742 22.2344 20.4492 22.2344ZM20.1797 10.8672C19.3047 10.8672 18.5703 11.1875 17.9766 11.8281C17.3828 12.4609 17.0156 13.3516 16.875 14.5H23.2266V14.3359C23.1641 13.2344 22.8672 12.3828 22.3359 11.7812C21.8047 11.1719 21.0859 10.8672 20.1797 10.8672ZM35.2969 18.6367C35.2969 18.0508 35.0742 17.5977 34.6289 17.2773C34.1914 16.9492 33.4219 16.668 32.3203 16.4336C31.2266 16.1992 30.3555 15.918 29.707 15.5898C29.0664 15.2617 28.5898 14.8711 28.2773 14.418C27.9727 13.9648 27.8203 13.4258 27.8203 12.8008C27.8203 11.7617 28.2578 10.8828 29.1328 10.1641C30.0156 9.44531 31.1406 9.08594 32.5078 9.08594C33.9453 9.08594 35.1094 9.45703 36 10.1992C36.8984 10.9414 37.3477 11.8906 37.3477 13.0469H35.168C35.168 12.4531 34.9141 11.9414 34.4062 11.5117C33.9062 11.082 33.2734 10.8672 32.5078 10.8672C31.7188 10.8672 31.1016 11.0391 30.6562 11.3828C30.2109 11.7266 29.9883 12.1758 29.9883 12.7305C29.9883 13.2539 30.1953 13.6484 30.6094 13.9141C31.0234 14.1797 31.7695 14.4336 32.8477 14.6758C33.9336 14.918 34.8125 15.207 35.4844 15.543C36.1562 15.8789 36.6523 16.2852 36.9727 16.7617C37.3008 17.2305 37.4648 17.8047 37.4648 18.4844C37.4648 19.6172 37.0117 20.5273 36.1055 21.2148C35.1992 21.8945 34.0234 22.2344 32.5781 22.2344C31.5625 22.2344 30.6641 22.0547 29.8828 21.6953C29.1016 21.3359 28.4883 20.8359 28.043 20.1953C27.6055 19.5469 27.3867 18.8477 27.3867 18.0977H29.5547C29.5938 18.8242 29.8828 19.4023 30.4219 19.832C30.9688 20.2539 31.6875 20.4648 32.5781 20.4648C33.3984 20.4648 34.0547 20.3008 34.5469 19.9727C35.0469 19.6367 35.2969 19.1914 35.2969 18.6367ZM45.375 20.4648C46.1484 20.4648 46.8242 20.2305 47.4023 19.7617C47.9805 19.293 48.3008 18.707 48.3633 18.0039H50.4141C50.375 18.7305 50.125 19.4219 49.6641 20.0781C49.2031 20.7344 48.5859 21.2578 47.8125 21.6484C47.0469 22.0391 46.2344 22.2344 45.375 22.2344C43.6484 22.2344 42.2734 21.6602 41.25 20.5117C40.2344 19.3555 39.7266 17.7773 39.7266 15.7773V15.4141C39.7266 14.1797 39.9531 13.082 40.4062 12.1211C40.8594 11.1602 41.5078 10.4141 42.3516 9.88281C43.2031 9.35156 44.207 9.08594 45.3633 9.08594C46.7852 9.08594 47.9648 9.51172 48.9023 10.3633C49.8477 11.2148 50.3516 12.3203 50.4141 13.6797H48.3633C48.3008 12.8594 47.9883 12.1875 47.4258 11.6641C46.8711 11.1328 46.1836 10.8672 45.3633 10.8672C44.2617 10.8672 43.4062 11.2656 42.7969 12.0625C42.1953 12.8516 41.8945 13.9961 41.8945 15.4961V15.9062C41.8945 17.3672 42.1953 18.4922 42.7969 19.2812C43.3984 20.0703 44.2578 20.4648 45.375 20.4648ZM58.1133 22.2344C56.3945 22.2344 54.9961 21.6719 53.918 20.5469C52.8398 19.4141 52.3008 17.9023 52.3008 16.0117V15.6133C52.3008 14.3555 52.5391 13.2344 53.0156 12.25C53.5 11.2578 54.1719 10.4844 55.0312 9.92969C55.8984 9.36719 56.8359 9.08594 57.8438 9.08594C59.4922 9.08594 60.7734 9.62891 61.6875 10.7148C62.6016 11.8008 63.0586 13.3555 63.0586 15.3789V16.2812H54.4688C54.5 17.5312 54.8633 18.543 55.5586 19.3164C56.2617 20.082 57.1523 20.4648 58.2305 20.4648C58.9961 20.4648 59.6445 20.3086 60.1758 19.9961C60.707 19.6836 61.1719 19.2695 61.5703 18.7539L62.8945 19.7852C61.832 21.418 60.2383 22.2344 58.1133 22.2344ZM57.8438 10.8672C56.9688 10.8672 56.2344 11.1875 55.6406 11.8281C55.0469 12.4609 54.6797 13.3516 54.5391 14.5H60.8906V14.3359C60.8281 13.2344 60.5312 12.3828 60 11.7812C59.4688 11.1719 58.75 10.8672 57.8438 10.8672ZM67.6289 9.32031L67.6992 10.9141C68.668 9.69531 69.9336 9.08594 71.4961 9.08594C74.1758 9.08594 75.5273 10.5977 75.5508 13.6211V22H73.3828V13.6094C73.375 12.6953 73.1641 12.0195 72.75 11.582C72.3438 11.1445 71.707 10.9258 70.8398 10.9258C70.1367 10.9258 69.5195 11.1133 68.9883 11.4883C68.457 11.8633 68.043 12.3555 67.7461 12.9648V22H65.5781V9.32031H67.6289ZM81.7617 6.25V9.32031H84.1289V10.9961H81.7617V18.8594C81.7617 19.3672 81.8672 19.75 82.0781 20.0078C82.2891 20.2578 82.6484 20.3828 83.1562 20.3828C83.4062 20.3828 83.75 20.3359 84.1875 20.2422V22C83.6172 22.1562 83.0625 22.2344 82.5234 22.2344C81.5547 22.2344 80.8242 21.9414 80.332 21.3555C79.8398 20.7695 79.5938 19.9375 79.5938 18.8594V10.9961H77.2852V9.32031H79.5938V6.25H81.7617Z" transform="translate(355 43)" fill="black"/>
<mask id="mask0" mask-type="alpha" maskUnits="userSpaceOnUse" x="177" y="393" width="198" height="9">
<rect width="198" height="9" transform="translate(177 393)" fill="white"/>
</mask>
<g mask="url(#mask0)">
<path d="M145.688 252.172C145.688 270.453 139.078 284.797 125.859 295.203C112.641 305.609 94.4062 310.812 71.1562 310.812C47.9062 310.812 28.875 307.203 14.0625 299.984V268.203C23.4375 272.609 33.375 276.078 43.875 278.609C54.4688 281.141 64.3125 282.406 73.4062 282.406C86.7188 282.406 96.5156 279.875 102.797 274.812C109.172 269.75 112.359 262.953 112.359 254.422C112.359 246.734 109.453 240.219 103.641 234.875C97.8281 229.531 85.8281 223.203 67.6406 215.891C48.8906 208.297 35.6719 199.625 27.9844 189.875C20.2969 180.125 16.4531 168.406 16.4531 154.719C16.4531 137.562 22.5469 124.062 34.7344 114.219C46.9219 104.375 63.2812 99.4531 83.8125 99.4531C103.5 99.4531 123.094 103.766 142.594 112.391L131.906 139.812C113.625 132.125 97.3125 128.281 82.9688 128.281C72.0938 128.281 63.8438 130.672 58.2188 135.453C52.5938 140.141 49.7812 146.375 49.7812 154.156C49.7812 159.5 50.9062 164.094 53.1562 167.938C55.4062 171.688 59.1094 175.25 64.2656 178.625C69.4219 182 78.7031 186.453 92.1094 191.984C107.203 198.266 118.266 204.125 125.297 209.562C132.328 215 137.484 221.141 140.766 227.984C144.047 234.828 145.688 242.891 145.688 252.172ZM260.859 310.812C241.172 310.812 225.891 303.734 215.016 289.578H213.047C214.359 302.703 215.016 310.672 215.016 313.484V377.188H181.969V152.469H208.688C209.438 155.375 210.984 162.312 213.328 173.281H215.016C225.328 157.531 240.797 149.656 261.422 149.656C280.828 149.656 295.922 156.688 306.703 170.75C317.578 184.812 323.016 204.547 323.016 229.953C323.016 255.359 317.484 275.188 306.422 289.438C295.453 303.688 280.266 310.812 260.859 310.812ZM252.844 176.656C239.719 176.656 230.109 180.5 224.016 188.188C218.016 195.875 215.016 208.156 215.016 225.031V229.953C215.016 248.891 218.016 262.625 224.016 271.156C230.016 279.594 239.812 283.812 253.406 283.812C264.844 283.812 273.656 279.125 279.844 269.75C286.031 260.375 289.125 247.016 289.125 229.672C289.125 212.234 286.031 199.062 279.844 190.156C273.75 181.156 264.75 176.656 252.844 176.656ZM498.234 308H465.047V212.375C465.047 200.375 462.609 191.422 457.734 185.516C452.953 179.609 445.312 176.656 434.812 176.656C420.938 176.656 410.719 180.828 404.156 189.172C397.688 197.422 394.453 211.297 394.453 230.797V308H361.406V89.1875H394.453V144.734C394.453 153.641 393.891 163.156 392.766 173.281H394.875C399.375 165.781 405.609 159.969 413.578 155.844C421.641 151.719 431.016 149.656 441.703 149.656C479.391 149.656 498.234 168.641 498.234 206.609V308ZM577.266 308H544.219V152.469H577.266V308ZM542.25 111.266C542.25 105.359 543.844 100.813 547.031 97.625C550.312 94.4375 554.953 92.8438 560.953 92.8438C566.766 92.8438 571.266 94.4375 574.453 97.625C577.734 100.813 579.375 105.359 579.375 111.266C579.375 116.891 577.734 121.344 574.453 124.625C571.266 127.813 566.766 129.406 560.953 129.406C554.953 129.406 550.312 127.813 547.031 124.625C543.844 121.344 542.25 116.891 542.25 111.266ZM761.484 308H728.297V212.375C728.297 200.375 725.859 191.422 720.984 185.516C716.203 179.609 708.562 176.656 698.062 176.656C684.094 176.656 673.875 180.781 667.406 189.031C660.938 197.281 657.703 211.109 657.703 230.516V308H624.656V152.469H650.531L655.172 172.859H656.859C661.547 165.453 668.203 159.734 676.828 155.703C685.453 151.672 695.016 149.656 705.516 149.656C742.828 149.656 761.484 168.641 761.484 206.609V308ZM842.062 228.547L789.891 152.469H827.578L863.016 206.891L898.734 152.469H936.141L883.828 228.547L938.812 308H901.406L863.016 249.781L824.766 308H787.359L842.062 228.547Z" transform="translate(216 88)" fill="#EB5757"/>
</g>
<path d="M1.06641 15.543C1.06641 14.3008 1.30859 13.1836 1.79297 12.1914C2.28516 11.1992 2.96484 10.4336 3.83203 9.89453C4.70703 9.35547 5.70312 9.08594 6.82031 9.08594C8.54688 9.08594 9.94141 9.68359 11.0039 10.8789C12.0742 12.0742 12.6094 13.6641 12.6094 15.6484V15.8008C12.6094 17.0352 12.3711 18.1445 11.8945 19.1289C11.4258 20.1055 10.75 20.8672 9.86719 21.4141C8.99219 21.9609 7.98438 22.2344 6.84375 22.2344C5.125 22.2344 3.73047 21.6367 2.66016 20.4414C1.59766 19.2461 1.06641 17.6641 1.06641 15.6953V15.543ZM3.24609 15.8008C3.24609 17.207 3.57031 18.3359 4.21875 19.1875C4.875 20.0391 5.75 20.4648 6.84375 20.4648C7.94531 20.4648 8.82031 20.0352 9.46875 19.1758C10.1172 18.3086 10.4414 17.0977 10.4414 15.543C10.4414 14.1523 10.1094 13.0273 9.44531 12.168C8.78906 11.3008 7.91406 10.8672 6.82031 10.8672C5.75 10.8672 4.88672 11.293 4.23047 12.1445C3.57422 12.9961 3.24609 14.2148 3.24609 15.8008ZM19.3242 19.0586L22.4648 9.32031H24.6797L20.1328 22H18.4805L13.8867 9.32031H16.1016L19.3242 19.0586ZM31.8633 22.2344C30.1445 22.2344 28.7461 21.6719 27.668 20.5469C26.5898 19.4141 26.0508 17.9023 26.0508 16.0117V15.6133C26.0508 14.3555 26.2891 13.2344 26.7656 12.25C27.25 11.2578 27.9219 10.4844 28.7812 9.92969C29.6484 9.36719 30.5859 9.08594 31.5938 9.08594C33.2422 9.08594 34.5234 9.62891 35.4375 10.7148C36.3516 11.8008 36.8086 13.3555 36.8086 15.3789V16.2812H28.2188C28.25 17.5312 28.6133 18.543 29.3086 19.3164C30.0117 20.082 30.9023 20.4648 31.9805 20.4648C32.7461 20.4648 33.3945 20.3086 33.9258 19.9961C34.457 19.6836 34.9219 19.2695 35.3203 18.7539L36.6445 19.7852C35.582 21.418 33.9883 22.2344 31.8633 22.2344ZM31.5938 10.8672C30.7188 10.8672 29.9844 11.1875 29.3906 11.8281C28.7969 12.4609 28.4297 13.3516 28.2891 14.5H34.6406V14.3359C34.5781 13.2344 34.2812 12.3828 33.75 11.7812C33.2188 11.1719 32.5 10.8672 31.5938 10.8672ZM45.457 11.2656C45.1289 11.2109 44.7734 11.1836 44.3906 11.1836C42.9688 11.1836 42.0039 11.7891 41.4961 13V22H39.3281V9.32031H41.4375L41.4727 10.7852C42.1836 9.65234 43.1914 9.08594 44.4961 9.08594C44.918 9.08594 45.2383 9.14062 45.457 9.25V11.2656ZM54.8438 18.6367C54.8438 18.0508 54.6211 17.5977 54.1758 17.2773C53.7383 16.9492 52.9688 16.668 51.8672 16.4336C50.7734 16.1992 49.9023 15.918 49.2539 15.5898C48.6133 15.2617 48.1367 14.8711 47.8242 14.418C47.5195 13.9648 47.3672 13.4258 47.3672 12.8008C47.3672 11.7617 47.8047 10.8828 48.6797 10.1641C49.5625 9.44531 50.6875 9.08594 52.0547 9.08594C53.4922 9.08594 54.6562 9.45703 55.5469 10.1992C56.4453 10.9414 56.8945 11.8906 56.8945 13.0469H54.7148C54.7148 12.4531 54.4609 11.9414 53.9531 11.5117C53.4531 11.082 52.8203 10.8672 52.0547 10.8672C51.2656 10.8672 50.6484 11.0391 50.2031 11.3828C49.7578 11.7266 49.5352 12.1758 49.5352 12.7305C49.5352 13.2539 49.7422 13.6484 50.1562 13.9141C50.5703 14.1797 51.3164 14.4336 52.3945 14.6758C53.4805 14.918 54.3594 15.207 55.0312 15.543C55.7031 15.8789 56.1992 16.2852 56.5195 16.7617C56.8477 17.2305 57.0117 17.8047 57.0117 18.4844C57.0117 19.6172 56.5586 20.5273 55.6523 21.2148C54.7461 21.8945 53.5703 22.2344 52.125 22.2344C51.1094 22.2344 50.2109 22.0547 49.4297 21.6953C48.6484 21.3359 48.0352 20.8359 47.5898 20.1953C47.1523 19.5469 46.9336 18.8477 46.9336 18.0977H49.1016C49.1406 18.8242 49.4297 19.4023 49.9688 19.832C50.5156 20.2539 51.2344 20.4648 52.125 20.4648C52.9453 20.4648 53.6016 20.3008 54.0938 19.9727C54.5938 19.6367 54.8438 19.1914 54.8438 18.6367ZM62.0039 10.8555C62.9648 9.67578 64.2148 9.08594 65.7539 9.08594C68.4336 9.08594 69.7852 10.5977 69.8086 13.6211V22H67.6406V13.6094C67.6328 12.6953 67.4219 12.0195 67.0078 11.582C66.6016 11.1445 65.9648 10.9258 65.0977 10.9258C64.3945 10.9258 63.7773 11.1133 63.2461 11.4883C62.7148 11.8633 62.3008 12.3555 62.0039 12.9648V22H59.8359V4H62.0039V10.8555ZM72.4805 15.543C72.4805 14.3008 72.7227 13.1836 73.207 12.1914C73.6992 11.1992 74.3789 10.4336 75.2461 9.89453C76.1211 9.35547 77.1172 9.08594 78.2344 9.08594C79.9609 9.08594 81.3555 9.68359 82.418 10.8789C83.4883 12.0742 84.0234 13.6641 84.0234 15.6484V15.8008C84.0234 17.0352 83.7852 18.1445 83.3086 19.1289C82.8398 20.1055 82.1641 20.8672 81.2812 21.4141C80.4062 21.9609 79.3984 22.2344 78.2578 22.2344C76.5391 22.2344 75.1445 21.6367 74.0742 20.4414C73.0117 19.2461 72.4805 17.6641 72.4805 15.6953V15.543ZM74.6602 15.8008C74.6602 17.207 74.9844 18.3359 75.6328 19.1875C76.2891 20.0391 77.1641 20.4648 78.2578 20.4648C79.3594 20.4648 80.2344 20.0352 80.8828 19.1758C81.5312 18.3086 81.8555 17.0977 81.8555 15.543C81.8555 14.1523 81.5234 13.0273 80.8594 12.168C80.2031 11.3008 79.3281 10.8672 78.2344 10.8672C77.1641 10.8672 76.3008 11.293 75.6445 12.1445C74.9883 12.9961 74.6602 14.2148 74.6602 15.8008ZM86.168 15.543C86.168 14.3008 86.4102 13.1836 86.8945 12.1914C87.3867 11.1992 88.0664 10.4336 88.9336 9.89453C89.8086 9.35547 90.8047 9.08594 91.9219 9.08594C93.6484 9.08594 95.043 9.68359 96.1055 10.8789C97.1758 12.0742 97.7109 13.6641 97.7109 15.6484V15.8008C97.7109 17.0352 97.4727 18.1445 96.9961 19.1289C96.5273 20.1055 95.8516 20.8672 94.9688 21.4141C94.0938 21.9609 93.0859 22.2344 91.9453 22.2344C90.2266 22.2344 88.832 21.6367 87.7617 20.4414C86.6992 19.2461 86.168 17.6641 86.168 15.6953V15.543ZM88.3477 15.8008C88.3477 17.207 88.6719 18.3359 89.3203 19.1875C89.9766 20.0391 90.8516 20.4648 91.9453 20.4648C93.0469 20.4648 93.9219 20.0352 94.5703 19.1758C95.2188 18.3086 95.543 17.0977 95.543 15.543C95.543 14.1523 95.2109 13.0273 94.5469 12.168C93.8906 11.3008 93.0156 10.8672 91.9219 10.8672C90.8516 10.8672 89.9883 11.293 89.332 12.1445C88.6758 12.9961 88.3477 14.2148 88.3477 15.8008ZM103.371 6.25V9.32031H105.738V10.9961H103.371V18.8594C103.371 19.3672 103.477 19.75 103.688 20.0078C103.898 20.2578 104.258 20.3828 104.766 20.3828C105.016 20.3828 105.359 20.3359 105.797 20.2422V22C105.227 22.1562 104.672 22.2344 104.133 22.2344C103.164 22.2344 102.434 21.9414 101.941 21.3555C101.449 20.7695 101.203 19.9375 101.203 18.8594V10.9961H98.8945V9.32031H101.203V6.25H103.371Z" transform="translate(233 418)" fill="black"/>
<path d="M4.58203 6.25V9.32031H6.94922V10.9961H4.58203V18.8594C4.58203 19.3672 4.6875 19.75 4.89844 20.0078C5.10938 20.2578 5.46875 20.3828 5.97656 20.3828C6.22656 20.3828 6.57031 20.3359 7.00781 20.2422V22C6.4375 22.1562 5.88281 22.2344 5.34375 22.2344C4.375 22.2344 3.64453 21.9414 3.15234 21.3555C2.66016 20.7695 2.41406 19.9375 2.41406 18.8594V10.9961H0.105469V9.32031H2.41406V6.25H4.58203ZM11.8477 22H9.67969V9.32031H11.8477V22ZM9.50391 5.95703C9.50391 5.60547 9.60938 5.30859 9.82031 5.06641C10.0391 4.82422 10.3594 4.70312 10.7812 4.70312C11.2031 4.70312 11.5234 4.82422 11.7422 5.06641C11.9609 5.30859 12.0703 5.60547 12.0703 5.95703C12.0703 6.30859 11.9609 6.60156 11.7422 6.83594C11.5234 7.07031 11.2031 7.1875 10.7812 7.1875C10.3594 7.1875 10.0391 7.07031 9.82031 6.83594C9.60938 6.60156 9.50391 6.30859 9.50391 5.95703ZM18.2695 6.25V9.32031H20.6367V10.9961H18.2695V18.8594C18.2695 19.3672 18.375 19.75 18.5859 20.0078C18.7969 20.2578 19.1562 20.3828 19.6641 20.3828C19.9141 20.3828 20.2578 20.3359 20.6953 20.2422V22C20.125 22.1562 19.5703 22.2344 19.0312 22.2344C18.0625 22.2344 17.332 21.9414 16.8398 21.3555C16.3477 20.7695 16.1016 19.9375 16.1016 18.8594V10.9961H13.793V9.32031H16.1016V6.25H18.2695ZM26.1211 6.25V9.32031H28.4883V10.9961H26.1211V18.8594C26.1211 19.3672 26.2266 19.75 26.4375 20.0078C26.6484 20.2578 27.0078 20.3828 27.5156 20.3828C27.7656 20.3828 28.1094 20.3359 28.5469 20.2422V22C27.9766 22.1562 27.4219 22.2344 26.8828 22.2344C25.9141 22.2344 25.1836 21.9414 24.6914 21.3555C24.1992 20.7695 23.9531 19.9375 23.9531 18.8594V10.9961H21.6445V9.32031H23.9531V6.25H26.1211ZM33.3867 22H31.2188V4H33.3867V22ZM42.1289 22.2344C40.4102 22.2344 39.0117 21.6719 37.9336 20.5469C36.8555 19.4141 36.3164 17.9023 36.3164 16.0117V15.6133C36.3164 14.3555 36.5547 13.2344 37.0312 12.25C37.5156 11.2578 38.1875 10.4844 39.0469 9.92969C39.9141 9.36719 40.8516 9.08594 41.8594 9.08594C43.5078 9.08594 44.7891 9.62891 45.7031 10.7148C46.6172 11.8008 47.0742 13.3555 47.0742 15.3789V16.2812H38.4844C38.5156 17.5312 38.8789 18.543 39.5742 19.3164C40.2773 20.082 41.168 20.4648 42.2461 20.4648C43.0117 20.4648 43.6602 20.3086 44.1914 19.9961C44.7227 19.6836 45.1875 19.2695 45.5859 18.7539L46.9102 19.7852C45.8477 21.418 44.2539 22.2344 42.1289 22.2344ZM41.8594 10.8672C40.9844 10.8672 40.25 11.1875 39.6562 11.8281C39.0625 12.4609 38.6953 13.3516 38.5547 14.5H44.9062V14.3359C44.8438 13.2344 44.5469 12.3828 44.0156 11.7812C43.4844 11.1719 42.7656 10.8672 41.8594 10.8672Z" transform="translate(752 43)" fill="black"/>
<path d="M10.8008 6.25V9.32031H13.168V10.9961H10.8008V18.8594C10.8008 19.3672 10.9062 19.75 11.1172 20.0078C11.3281 20.2578 11.6875 20.3828 12.1953 20.3828C12.4453 20.3828 12.7891 20.3359 13.2266 20.2422V22C12.6562 22.1562 12.1016 22.2344 11.5625 22.2344C10.5938 22.2344 9.86328 21.9414 9.37109 21.3555C8.87891 20.7695 8.63281 19.9375 8.63281 18.8594V10.9961H6.32422V9.32031H8.63281V6.25H10.8008ZM14.9023 15.543C14.9023 14.3008 15.1445 13.1836 15.6289 12.1914C16.1211 11.1992 16.8008 10.4336 17.668 9.89453C18.543 9.35547 19.5391 9.08594 20.6562 9.08594C22.3828 9.08594 23.7773 9.68359 24.8398 10.8789C25.9102 12.0742 26.4453 13.6641 26.4453 15.6484V15.8008C26.4453 17.0352 26.207 18.1445 25.7305 19.1289C25.2617 20.1055 24.5859 20.8672 23.7031 21.4141C22.8281 21.9609 21.8203 22.2344 20.6797 22.2344C18.9609 22.2344 17.5664 21.6367 16.4961 20.4414C15.4336 19.2461 14.9023 17.6641 14.9023 15.6953V15.543ZM17.082 15.8008C17.082 17.207 17.4062 18.3359 18.0547 19.1875C18.7109 20.0391 19.5859 20.4648 20.6797 20.4648C21.7812 20.4648 22.6562 20.0352 23.3047 19.1758C23.9531 18.3086 24.2773 17.0977 24.2773 15.543C24.2773 14.1523 23.9453 13.0273 23.2812 12.168C22.625 11.3008 21.75 10.8672 20.6562 10.8672C19.5859 10.8672 18.7227 11.293 18.0664 12.1445C17.4102 12.9961 17.082 14.2148 17.082 15.8008ZM39.875 15.8008C39.875 17.7305 39.4336 19.2852 38.5508 20.4648C37.668 21.6445 36.4727 22.2344 34.9648 22.2344C33.4258 22.2344 32.2148 21.7461 31.332 20.7695V26.875H29.1641V9.32031H31.1445L31.25 10.7266C32.1328 9.63281 33.3594 9.08594 34.9297 9.08594C36.4531 9.08594 37.6562 9.66016 38.5391 10.8086C39.4297 11.957 39.875 13.5547 39.875 15.6016V15.8008ZM37.707 15.5547C37.707 14.125 37.4023 12.9961 36.793 12.168C36.1836 11.3398 35.3477 10.9258 34.2852 10.9258C32.9727 10.9258 31.9883 11.5078 31.332 12.6719V18.7305C31.9805 19.8867 32.9727 20.4648 34.3086 20.4648C35.3477 20.4648 36.1719 20.0547 36.7812 19.2344C37.3984 18.4062 37.707 17.1797 37.707 15.5547Z" transform="translate(78 71)" fill="black"/>
<path d="M1.57031 38.6953C1.57031 37.8672 1.73177 37.1224 2.05469 36.4609C2.38281 35.7995 2.83594 35.2891 3.41406 34.9297C3.9974 34.5703 4.66146 34.3906 5.40625 34.3906C6.55729 34.3906 7.48698 34.7891 8.19531 35.5859C8.90885 36.3828 9.26562 37.4427 9.26562 38.7656V38.8672C9.26562 39.6901 9.10677 40.4297 8.78906 41.0859C8.47656 41.737 8.02604 42.2448 7.4375 42.6094C6.85417 42.974 6.18229 43.1562 5.42188 43.1562C4.27604 43.1562 3.34635 42.7578 2.63281 41.9609C1.92448 41.1641 1.57031 40.1094 1.57031 38.7969V38.6953ZM3.02344 38.8672C3.02344 39.8047 3.23958 40.5573 3.67188 41.125C4.10938 41.6927 4.69271 41.9766 5.42188 41.9766C6.15625 41.9766 6.73958 41.6901 7.17188 41.1172C7.60417 40.5391 7.82031 39.7318 7.82031 38.6953C7.82031 37.7682 7.59896 37.0182 7.15625 36.4453C6.71875 35.8672 6.13542 35.5781 5.40625 35.5781C4.69271 35.5781 4.11719 35.862 3.67969 36.4297C3.24219 36.9974 3.02344 37.8099 3.02344 38.8672ZM15.1641 35.8438C14.9453 35.8073 14.7083 35.7891 14.4531 35.7891C13.5052 35.7891 12.862 36.1927 12.5234 37V43H11.0781V34.5469H12.4844L12.5078 35.5234C12.9818 34.7682 13.6536 34.3906 14.5234 34.3906C14.8047 34.3906 15.0182 34.4271 15.1641 34.5V35.8438ZM18.0703 43H16.625V34.5469H18.0703V43ZM16.5078 32.3047C16.5078 32.0703 16.5781 31.8724 16.7188 31.7109C16.8646 31.5495 17.0781 31.4688 17.3594 31.4688C17.6406 31.4688 17.8542 31.5495 18 31.7109C18.1458 31.8724 18.2188 32.0703 18.2188 32.3047C18.2188 32.5391 18.1458 32.7344 18 32.8906C17.8542 33.0469 17.6406 33.125 17.3594 33.125C17.0781 33.125 16.8646 33.0469 16.7188 32.8906C16.5781 32.7344 16.5078 32.5391 16.5078 32.3047ZM20.0469 38.7031C20.0469 37.3854 20.3516 36.3385 20.9609 35.5625C21.5703 34.7812 22.3776 34.3906 23.3828 34.3906C24.4141 34.3906 25.2188 34.7552 25.7969 35.4844L25.8672 34.5469H27.1875V42.7969C27.1875 43.8906 26.862 44.7526 26.2109 45.3828C25.5651 46.013 24.6953 46.3281 23.6016 46.3281C22.9922 46.3281 22.3958 46.1979 21.8125 45.9375C21.2292 45.6771 20.7839 45.3203 20.4766 44.8672L21.2266 44C21.8464 44.7656 22.6042 45.1484 23.5 45.1484C24.2031 45.1484 24.75 44.9505 25.1406 44.5547C25.5365 44.1589 25.7344 43.6016 25.7344 42.8828V42.1562C25.1562 42.8229 24.3672 43.1562 23.3672 43.1562C22.3776 43.1562 21.5755 42.7578 20.9609 41.9609C20.3516 41.1641 20.0469 40.0781 20.0469 38.7031ZM21.5 38.8672C21.5 39.8203 21.6953 40.5703 22.0859 41.1172C22.4766 41.6589 23.0234 41.9297 23.7266 41.9297C24.638 41.9297 25.3073 41.5156 25.7344 40.6875V36.8281C25.2917 36.0208 24.6276 35.6172 23.7422 35.6172C23.0391 35.6172 22.4896 35.8906 22.0938 36.4375C21.6979 36.9844 21.5 37.7943 21.5 38.8672ZM30.9453 43H29.5V34.5469H30.9453V43ZM29.3828 32.3047C29.3828 32.0703 29.4531 31.8724 29.5938 31.7109C29.7396 31.5495 29.9531 31.4688 30.2344 31.4688C30.5156 31.4688 30.7292 31.5495 30.875 31.7109C31.0208 31.8724 31.0938 32.0703 31.0938 32.3047C31.0938 32.5391 31.0208 32.7344 30.875 32.8906C30.7292 33.0469 30.5156 33.125 30.2344 33.125C29.9531 33.125 29.7396 33.0469 29.5938 32.8906C29.4531 32.7344 29.3828 32.5391 29.3828 32.3047ZM34.6328 34.5469L34.6797 35.6094C35.3255 34.7969 36.1693 34.3906 37.2109 34.3906C38.9974 34.3906 39.8984 35.3984 39.9141 37.4141V43H38.4688V37.4062C38.4635 36.7969 38.3229 36.3464 38.0469 36.0547C37.776 35.763 37.3516 35.6172 36.7734 35.6172C36.3047 35.6172 35.8932 35.7422 35.5391 35.9922C35.1849 36.2422 34.9089 36.5703 34.7109 36.9766V43H33.2656V34.5469H34.6328Z" transform="translate(78 71)" fill="#828282"/>
<path d="M12.375 15.8008C12.375 17.7383 11.9297 19.2969 11.0391 20.4766C10.1484 21.6484 8.95312 22.2344 7.45312 22.2344C5.85156 22.2344 4.61328 21.668 3.73828 20.5352L3.63281 22H1.64062V4H3.80859V10.7148C4.68359 9.62891 5.89062 9.08594 7.42969 9.08594C8.96875 9.08594 10.1758 9.66797 11.0508 10.832C11.9336 11.9961 12.375 13.5898 12.375 15.6133V15.8008ZM10.207 15.5547C10.207 14.0781 9.92188 12.9375 9.35156 12.1328C8.78125 11.3281 7.96094 10.9258 6.89062 10.9258C5.46094 10.9258 4.43359 11.5898 3.80859 12.918V18.4023C4.47266 19.7305 5.50781 20.3945 6.91406 20.3945C7.95312 20.3945 8.76172 19.9922 9.33984 19.1875C9.91797 18.3828 10.207 17.1719 10.207 15.5547ZM14.543 15.543C14.543 14.3008 14.7852 13.1836 15.2695 12.1914C15.7617 11.1992 16.4414 10.4336 17.3086 9.89453C18.1836 9.35547 19.1797 9.08594 20.2969 9.08594C22.0234 9.08594 23.418 9.68359 24.4805 10.8789C25.5508 12.0742 26.0859 13.6641 26.0859 15.6484V15.8008C26.0859 17.0352 25.8477 18.1445 25.3711 19.1289C24.9023 20.1055 24.2266 20.8672 23.3438 21.4141C22.4688 21.9609 21.4609 22.2344 20.3203 22.2344C18.6016 22.2344 17.207 21.6367 16.1367 20.4414C15.0742 19.2461 14.543 17.6641 14.543 15.6953V15.543ZM16.7227 15.8008C16.7227 17.207 17.0469 18.3359 17.6953 19.1875C18.3516 20.0391 19.2266 20.4648 20.3203 20.4648C21.4219 20.4648 22.2969 20.0352 22.9453 19.1758C23.5938 18.3086 23.918 17.0977 23.918 15.543C23.918 14.1523 23.5859 13.0273 22.9219 12.168C22.2656 11.3008 21.3906 10.8672 20.2969 10.8672C19.2266 10.8672 18.3633 11.293 17.707 12.1445C17.0508 12.9961 16.7227 14.2148 16.7227 15.8008ZM31.7461 6.25V9.32031H34.1133V10.9961H31.7461V18.8594C31.7461 19.3672 31.8516 19.75 32.0625 20.0078C32.2734 20.2578 32.6328 20.3828 33.1406 20.3828C33.3906 20.3828 33.7344 20.3359 34.1719 20.2422V22C33.6016 22.1562 33.0469 22.2344 32.5078 22.2344C31.5391 22.2344 30.8086 21.9414 30.3164 21.3555C29.8242 20.7695 29.5781 19.9375 29.5781 18.8594V10.9961H27.2695V9.32031H29.5781V6.25H31.7461ZM39.5977 6.25V9.32031H41.9648V10.9961H39.5977V18.8594C39.5977 19.3672 39.7031 19.75 39.9141 20.0078C40.125 20.2578 40.4844 20.3828 40.9922 20.3828C41.2422 20.3828 41.5859 20.3359 42.0234 20.2422V22C41.4531 22.1562 40.8984 22.2344 40.3594 22.2344C39.3906 22.2344 38.6602 21.9414 38.168 21.3555C37.6758 20.7695 37.4297 19.9375 37.4297 18.8594V10.9961H35.1211V9.32031H37.4297V6.25H39.5977ZM43.6992 15.543C43.6992 14.3008 43.9414 13.1836 44.4258 12.1914C44.918 11.1992 45.5977 10.4336 46.4648 9.89453C47.3398 9.35547 48.3359 9.08594 49.4531 9.08594C51.1797 9.08594 52.5742 9.68359 53.6367 10.8789C54.707 12.0742 55.2422 13.6641 55.2422 15.6484V15.8008C55.2422 17.0352 55.0039 18.1445 54.5273 19.1289C54.0586 20.1055 53.3828 20.8672 52.5 21.4141C51.625 21.9609 50.6172 22.2344 49.4766 22.2344C47.7578 22.2344 46.3633 21.6367 45.293 20.4414C44.2305 19.2461 43.6992 17.6641 43.6992 15.6953V15.543ZM45.8789 15.8008C45.8789 17.207 46.2031 18.3359 46.8516 19.1875C47.5078 20.0391 48.3828 20.4648 49.4766 20.4648C50.5781 20.4648 51.4531 20.0352 52.1016 19.1758C52.75 18.3086 53.0742 17.0977 53.0742 15.543C53.0742 14.1523 52.7422 13.0273 52.0781 12.168C51.4219 11.3008 50.5469 10.8672 49.4531 10.8672C48.3828 10.8672 47.5195 11.293 46.8633 12.1445C46.207 12.9961 45.8789 14.2148 45.8789 15.8008ZM60 9.32031L60.0586 10.7266C60.9883 9.63281 62.2422 9.08594 63.8203 9.08594C65.5938 9.08594 66.8008 9.76562 67.4414 11.125C67.8633 10.5156 68.4102 10.0234 69.082 9.64844C69.7617 9.27344 70.5625 9.08594 71.4844 9.08594C74.2656 9.08594 75.6797 10.5586 75.7266 13.5039V22H73.5586V13.6328C73.5586 12.7266 73.3516 12.0508 72.9375 11.6055C72.5234 11.1523 71.8281 10.9258 70.8516 10.9258C70.0469 10.9258 69.3789 11.168 68.8477 11.6523C68.3164 12.1289 68.0078 12.7734 67.9219 13.5859V22H65.7422V13.6914C65.7422 11.8477 64.8398 10.9258 63.0352 10.9258C61.6133 10.9258 60.6406 11.5312 60.1172 12.7422V22H57.9492V9.32031H60Z" transform="translate(42 464)" fill="black"/>
</svg>
